<svg width="96" height="96" viewBox="0 0 96 96" fill="none" xmlns="http://www.w3.org/2000/svg">
  <defs><linearGradient id="bg" x1="13" y1="12" x2="84" y2="84" gradientUnits="userSpaceOnUse"><stop stop-color="#EFFFF6"/><stop offset=".55" stop-color="#A8F0D1"/><stop offset="1" stop-color="#FFE1C6"/></linearGradient><filter id="sh" x="7" y="8" width="82" height="84" filterUnits="userSpaceOnUse" color-interpolation-filters="sRGB"><feDropShadow dx="0" dy="12" stdDeviation="10" flood-color="#29466F" flood-opacity=".10"/><feDropShadow dx="0" dy="4" stdDeviation="5" flood-color="#0E9F6E" flood-opacity=".06"/></filter></defs>
  <rect x="8" y="8" width="80" height="80" rx="24" fill="url(#bg)"/>
  <g filter="url(#sh)"><rect x="22" y="24" width="52" height="48" rx="17" fill="#FFFFFF" fill-opacity=".84"/><path fill-rule="evenodd" clip-rule="evenodd" d="M48 64C56.837 64 64 56.837 64 48C64 39.163 56.837 32 48 32C39.163 32 32 39.163 32 48C32 56.837 39.163 64 48 64ZM48 57C52.971 57 57 52.971 57 48C57 43.029 52.971 39 48 39C43.029 39 39 43.029 39 48C39 52.971 43.029 57 48 57Z" fill="#284B70"/><path d="M27 34C27 32.619 28.119 31.5 29.5 31.5C30.881 31.5 32 32.619 32 34V44C32 46.414 30.279 48.428 28 48.884V64.5C28 65.881 26.881 67 25.5 67C24.119 67 23 65.881 23 64.5V48.884C20.721 48.428 19 46.414 19 44V34C19 32.619 20.119 31.5 21.5 31.5C22.881 31.5 24 32.619 24 34V42H27V34Z" fill="#0E9F6E"/><path d="M72 32C75.314 32 78 34.686 78 38V50C78 52.973 75.838 55.441 73 55.917V64.5C73 65.881 71.881 67 70.5 67C69.119 67 68 65.881 68 64.5V36C68 33.791 69.791 32 72 32Z" fill="#FF8A3D"/></g>
</svg>
