<svg width="96" height="96" viewBox="0 0 96 96" fill="none" xmlns="http://www.w3.org/2000/svg">
  <defs><linearGradient id="bg" x1="13" y1="12" x2="84" y2="84" gradientUnits="userSpaceOnUse"><stop stop-color="#FFF5EC"/><stop offset=".55" stop-color="#FFD2AE"/><stop offset="1" stop-color="#D8F8FF"/></linearGradient><filter id="sh" x="7" y="8" width="82" height="84" filterUnits="userSpaceOnUse" color-interpolation-filters="sRGB"><feDropShadow dx="0" dy="12" stdDeviation="10" flood-color="#29466F" flood-opacity=".10"/><feDropShadow dx="0" dy="4" stdDeviation="5" flood-color="#FF8A3D" flood-opacity=".09"/></filter></defs>
  <rect x="8" y="8" width="80" height="80" rx="24" fill="url(#bg)"/><circle cx="69" cy="27" r="10" fill="#FF8A3D" fill-opacity=".18"/>
  <g filter="url(#sh)"><rect x="22" y="24" width="52" height="48" rx="17" fill="#FFFFFF" fill-opacity=".84"/><path fill-rule="evenodd" clip-rule="evenodd" d="M31 35C31 31.686 33.686 29 37 29H59C62.314 29 65 31.686 65 35V48C65 51.314 62.314 54 59 54H49.8L39.8 63.2C38.843 64.081 37.3 63.402 37.3 62.101V54H37C33.686 54 31 51.314 31 48V35ZM39 38C37.895 38 37 38.895 37 40C37 41.105 37.895 42 39 42H55C56.105 42 57 41.105 57 40C57 38.895 56.105 38 55 38H39ZM39 46C37.895 46 37 46.895 37 48C37 49.105 37.895 50 39 50H49C50.105 50 51 49.105 51 48C51 46.895 50.105 46 49 46H39Z" fill="#284B70"/><circle cx="62" cy="33" r="6" fill="#FF8A3D"/><circle cx="62" cy="33" r="2.5" fill="#FFFFFF" fill-opacity=".9"/></g>
</svg>
