<svg width="96" height="96" viewBox="0 0 96 96" fill="none" xmlns="http://www.w3.org/2000/svg">
  <defs><linearGradient id="bg" x1="13" y1="12" x2="84" y2="84" gradientUnits="userSpaceOnUse"><stop stop-color="#FFF0F0"/><stop offset=".55" stop-color="#FFB7B0"/><stop offset="1" stop-color="#FFE1C6"/></linearGradient><filter id="sh" x="7" y="8" width="82" height="84" filterUnits="userSpaceOnUse" color-interpolation-filters="sRGB"><feDropShadow dx="0" dy="12" stdDeviation="10" flood-color="#29466F" flood-opacity=".10"/><feDropShadow dx="0" dy="4" stdDeviation="5" flood-color="#D94A3D" flood-opacity=".07"/></filter></defs>
  <rect x="8" y="8" width="80" height="80" rx="24" fill="url(#bg)"/>
  <g filter="url(#sh)"><rect x="22" y="24" width="52" height="48" rx="17" fill="#FFFFFF" fill-opacity=".84"/><circle cx="48" cy="48" r="22" fill="#D94A3D" fill-opacity=".18"/><path fill-rule="evenodd" clip-rule="evenodd" d="M37.4 34.9C38.8 33.5 41.1 33.5 42.5 34.9L48 40.4L53.5 34.9C54.9 33.5 57.2 33.5 58.6 34.9L61.1 37.4C62.5 38.8 62.5 41.1 61.1 42.5L55.6 48L61.1 53.5C62.5 54.9 62.5 57.2 61.1 58.6L58.6 61.1C57.2 62.5 54.9 62.5 53.5 61.1L48 55.6L42.5 61.1C41.1 62.5 38.8 62.5 37.4 61.1L34.9 58.6C33.5 57.2 33.5 54.9 34.9 53.5L40.4 48L34.9 42.5C33.5 41.1 33.5 38.8 34.9 37.4L37.4 34.9Z" fill="#D94A3D"/></g>
</svg>
