<svg width="96" height="96" viewBox="0 0 96 96" fill="none" xmlns="http://www.w3.org/2000/svg">
  <defs><linearGradient id="bg" x1="13" y1="12" x2="84" y2="84" gradientUnits="userSpaceOnUse"><stop stop-color="#F2F8FF"/><stop offset=".55" stop-color="#C7D9EF"/><stop offset="1" stop-color="#FFE1C6"/></linearGradient><filter id="sh" x="7" y="8" width="82" height="84" filterUnits="userSpaceOnUse" color-interpolation-filters="sRGB"><feDropShadow dx="0" dy="12" stdDeviation="10" flood-color="#29466F" flood-opacity=".10"/><feDropShadow dx="0" dy="4" stdDeviation="5" flood-color="#5B9DFF" flood-opacity=".05"/></filter></defs>
  <rect x="8" y="8" width="80" height="80" rx="24" fill="url(#bg)"/>
  <g filter="url(#sh)"><rect x="22" y="24" width="52" height="48" rx="17" fill="#FFFFFF" fill-opacity=".84"/><path fill-rule="evenodd" clip-rule="evenodd" d="M48 27C36.402 27 27 36.402 27 48C27 59.598 36.402 69 48 69C59.598 69 69 59.598 69 48C69 36.402 59.598 27 48 27ZM48 36C45.791 36 44 37.791 44 40C44 42.209 45.791 44 48 44C50.209 44 52 42.209 52 40C52 37.791 50.209 36 48 36ZM48 48C46.343 48 45 49.343 45 51V60C45 61.657 46.343 63 48 63C49.657 63 51 61.657 51 60V51C51 49.343 49.657 48 48 48Z" fill="#284B70"/><circle cx="65" cy="33" r="6" fill="#FF8A3D"/></g>
</svg>
