<svg width="96" height="96" viewBox="0 0 96 96" fill="none" xmlns="http://www.w3.org/2000/svg">
  <defs><linearGradient id="bg" x1="13" y1="12" x2="84" y2="84" gradientUnits="userSpaceOnUse"><stop stop-color="#EFFFF6"/><stop offset=".55" stop-color="#B9E7FF"/><stop offset="1" stop-color="#FFE1C6"/></linearGradient><filter id="sh" x="7" y="8" width="82" height="84" filterUnits="userSpaceOnUse" color-interpolation-filters="sRGB"><feDropShadow dx="0" dy="12" stdDeviation="10" flood-color="#29466F" flood-opacity=".10"/><feDropShadow dx="0" dy="4" stdDeviation="5" flood-color="#5B9DFF" flood-opacity=".05"/></filter></defs>
  <rect x="8" y="8" width="80" height="80" rx="24" fill="url(#bg)"/>
  <g filter="url(#sh)"><rect x="22" y="24" width="52" height="48" rx="17" fill="#FFFFFF" fill-opacity=".84"/><path fill-rule="evenodd" clip-rule="evenodd" d="M48 26C35.85 26 26 35.85 26 48C26 60.15 35.85 70 48 70C60.15 70 70 60.15 70 48C70 35.85 60.15 26 48 26ZM36 42H41.5C41.9 38.5 42.7 35.5 43.8 33.4C40.2 34.6 37.3 37.7 36 42ZM41.5 54H36C37.3 58.3 40.2 61.4 43.8 62.6C42.7 60.5 41.9 57.5 41.5 54ZM54.5 54C54.1 57.5 53.3 60.5 52.2 62.6C55.8 61.4 58.7 58.3 60 54H54.5ZM60 42H54.5C54.1 38.5 53.3 35.5 52.2 33.4C55.8 34.6 58.7 37.7 60 42ZM46 34C45.4 35.8 44.8 38.6 44.5 42H51.5C51.2 38.6 50.6 35.8 50 34H46ZM44.1 48C44.1 48.7 44.1 49.4 44.2 50H51.8C51.9 49.4 51.9 48.7 51.9 48C51.9 47.3 51.9 46.6 51.8 46H44.2C44.1 46.6 44.1 47.3 44.1 48ZM46 62C45.4 60.2 44.8 57.4 44.5 54H51.5C51.2 57.4 50.6 60.2 50 62H46Z" fill="#284B70"/><circle cx="65" cy="32" r="6" fill="#FF8A3D"/></g>
</svg>
