<svg width="96" height="96" viewBox="0 0 96 96" fill="none" xmlns="http://www.w3.org/2000/svg">
  <defs><linearGradient id="bg" x1="13" y1="12" x2="84" y2="84" gradientUnits="userSpaceOnUse"><stop stop-color="#F2F8FF"/><stop offset=".55" stop-color="#C7D9EF"/><stop offset="1" stop-color="#FFE1C6"/></linearGradient><filter id="sh" x="7" y="8" width="82" height="84" filterUnits="userSpaceOnUse" color-interpolation-filters="sRGB"><feDropShadow dx="0" dy="12" stdDeviation="10" flood-color="#29466F" flood-opacity=".10"/><feDropShadow dx="0" dy="4" stdDeviation="5" flood-color="#5B9DFF" flood-opacity=".05"/></filter></defs>
  <rect x="8" y="8" width="80" height="80" rx="24" fill="url(#bg)"/>
  <g filter="url(#sh)"><rect x="22" y="24" width="52" height="48" rx="17" fill="#FFFFFF" fill-opacity=".84"/><path fill-rule="evenodd" clip-rule="evenodd" d="M52.2 28L54 33.5C55.1 33.9 56.1 34.5 57 35.2L62.6 33.9L67 41.5L63 45.6C63.1 46.4 63.2 47.2 63.2 48C63.2 48.8 63.1 49.6 63 50.4L67 54.5L62.6 62.1L57 60.8C56.1 61.5 55.1 62.1 54 62.5L52.2 68H43.8L42 62.5C40.9 62.1 39.9 61.5 39 60.8L33.4 62.1L29 54.5L33 50.4C32.9 49.6 32.8 48.8 32.8 48C32.8 47.2 32.9 46.4 33 45.6L29 41.5L33.4 33.9L39 35.2C39.9 34.5 40.9 33.9 42 33.5L43.8 28H52.2ZM48 56C52.418 56 56 52.418 56 48C56 43.582 52.418 40 48 40C43.582 40 40 43.582 40 48C40 52.418 43.582 56 48 56Z" fill="#284B70"/><circle cx="48" cy="48" r="4" fill="#FF8A3D"/></g>
</svg>
