<svg width="96" height="96" viewBox="0 0 96 96" fill="none" xmlns="http://www.w3.org/2000/svg">
  <defs><linearGradient id="bg" x1="13" y1="12" x2="84" y2="84" gradientUnits="userSpaceOnUse"><stop stop-color="#FFF2E8"/><stop offset=".55" stop-color="#FFB06F"/><stop offset="1" stop-color="#D9C9FF"/></linearGradient><filter id="sh" x="7" y="8" width="82" height="84" filterUnits="userSpaceOnUse" color-interpolation-filters="sRGB"><feDropShadow dx="0" dy="12" stdDeviation="10" flood-color="#29466F" flood-opacity=".10"/><feDropShadow dx="0" dy="4" stdDeviation="5" flood-color="#FF8A3D" flood-opacity=".08"/></filter></defs>
  <rect x="8" y="8" width="80" height="80" rx="24" fill="url(#bg)"/>
  <g filter="url(#sh)"><rect x="22" y="24" width="52" height="48" rx="17" fill="#FFFFFF" fill-opacity=".84"/><path fill-rule="evenodd" clip-rule="evenodd" d="M30 31C26.686 31 24 33.686 24 37V55C24 58.314 26.686 61 30 61H40L48 70C48.88 70.99 50.5 70.368 50.5 69.043V61H66C69.314 61 72 58.314 72 55V37C72 33.686 69.314 31 66 31H30ZM37 44C35.619 44 34.5 45.119 34.5 46.5C34.5 47.881 35.619 49 37 49H49C50.381 49 51.5 47.881 51.5 46.5C51.5 45.119 50.381 44 49 44H37Z" fill="#284B70"/><path d="M55 50L66.8 38.2C67.6 37.4 68.9 37.4 69.7 38.2L71.8 40.3C72.6 41.1 72.6 42.4 71.8 43.2L60 55L53 57L55 50Z" fill="#FF8A3D"/></g>
</svg>
