<svg width="96" height="96" viewBox="0 0 96 96" fill="none" xmlns="http://www.w3.org/2000/svg">
  <defs><linearGradient id="bg" x1="13" y1="12" x2="84" y2="84" gradientUnits="userSpaceOnUse"><stop stop-color="#FFF7D9"/><stop offset=".55" stop-color="#FFD48B"/><stop offset="1" stop-color="#CFF7FF"/></linearGradient><filter id="sh" x="7" y="8" width="82" height="84" filterUnits="userSpaceOnUse" color-interpolation-filters="sRGB"><feDropShadow dx="0" dy="12" stdDeviation="10" flood-color="#29466F" flood-opacity=".10"/><feDropShadow dx="0" dy="4" stdDeviation="5" flood-color="#FF8A3D" flood-opacity=".07"/></filter></defs>
  <rect x="8" y="8" width="80" height="80" rx="24" fill="url(#bg)"/>
  <g filter="url(#sh)"><rect x="22" y="24" width="52" height="48" rx="17" fill="#FFFFFF" fill-opacity=".84"/><path fill-rule="evenodd" clip-rule="evenodd" d="M32 29C28.686 29 26 31.686 26 35V64C26 67.314 28.686 70 32 70H58C61.314 70 64 67.314 64 64V35C64 31.686 61.314 29 58 29H32ZM32 42H58V62H32V42ZM38 49C36.619 49 35.5 50.119 35.5 51.5C35.5 52.881 36.619 54 38 54H45C46.381 54 47.5 52.881 47.5 51.5C47.5 50.119 46.381 49 45 49H38Z" fill="#284B70"/><circle cx="63" cy="61" r="13" fill="#FF8A3D"/><rect x="61" y="54" width="4" height="9" rx="2" fill="#FFFFFF"/><path d="M62 60H68V64H62V60Z" fill="#FFFFFF"/></g>
</svg>
