<svg width="96" height="96" viewBox="0 0 96 96" fill="none" xmlns="http://www.w3.org/2000/svg">
  <defs><linearGradient id="bg" x1="13" y1="12" x2="84" y2="84" gradientUnits="userSpaceOnUse"><stop stop-color="#FFF2E8"/><stop offset=".55" stop-color="#FFB06F"/><stop offset="1" stop-color="#D9C9FF"/></linearGradient><filter id="sh" x="7" y="8" width="82" height="84" filterUnits="userSpaceOnUse" color-interpolation-filters="sRGB"><feDropShadow dx="0" dy="12" stdDeviation="10" flood-color="#29466F" flood-opacity=".10"/><feDropShadow dx="0" dy="4" stdDeviation="5" flood-color="#FF8A3D" flood-opacity=".08"/></filter></defs>
  <rect x="8" y="8" width="80" height="80" rx="24" fill="url(#bg)"/>
  <g filter="url(#sh)"><rect x="22" y="24" width="52" height="48" rx="17" fill="#FFFFFF" fill-opacity=".84"/><path fill-rule="evenodd" clip-rule="evenodd" d="M31 35C31 31.686 33.686 29 37 29H59C62.314 29 65 31.686 65 35V49C65 52.314 62.314 55 59 55H50L40 64.2C39.043 65.081 37.5 64.402 37.5 63.101V55H37C33.686 55 31 52.314 31 49V35ZM39 39C37.895 39 37 39.895 37 41C37 42.105 37.895 43 39 43H53C54.105 43 55 42.105 55 41C55 39.895 54.105 39 53 39H39ZM39 47C37.895 47 37 47.895 37 49C37 50.105 37.895 51 39 51H48C49.105 51 50 50.105 50 49C50 47.895 49.105 47 48 47H39Z" fill="#284B70"/><circle cx="65" cy="29" r="9" fill="#FF5A4F"/><circle cx="65" cy="29" r="3" fill="#FFFFFF" fill-opacity=".9"/></g>
</svg>
