<svg width="96" height="96" viewBox="0 0 96 96" fill="none" xmlns="http://www.w3.org/2000/svg">
  <defs><linearGradient id="bg" x1="13" y1="12" x2="84" y2="84" gradientUnits="userSpaceOnUse"><stop stop-color="#FFF8D8"/><stop offset=".55" stop-color="#FFD68A"/><stop offset="1" stop-color="#FFE1C6"/></linearGradient><filter id="sh" x="7" y="8" width="82" height="84" filterUnits="userSpaceOnUse" color-interpolation-filters="sRGB"><feDropShadow dx="0" dy="12" stdDeviation="10" flood-color="#29466F" flood-opacity=".10"/><feDropShadow dx="0" dy="4" stdDeviation="5" flood-color="#FFB347" flood-opacity=".07"/></filter></defs>
  <rect x="8" y="8" width="80" height="80" rx="24" fill="url(#bg)"/>
  <g filter="url(#sh)"><rect x="22" y="24" width="52" height="48" rx="17" fill="#FFFFFF" fill-opacity=".84"/><path fill-rule="evenodd" clip-rule="evenodd" d="M44.5 31C46.056 28.333 49.944 28.333 51.5 31L70 62.714C71.556 65.381 69.612 68.714 66.5 68.714H29.5C26.388 68.714 24.444 65.381 26 62.714L44.5 31ZM48 40C46.343 40 45 41.343 45 43V54C45 55.657 46.343 57 48 57C49.657 57 51 55.657 51 54V43C51 41.343 49.657 40 48 40ZM48 66C50.209 66 52 64.209 52 62C52 59.791 50.209 58 48 58C45.791 58 44 59.791 44 62C44 64.209 45.791 66 48 66Z" fill="#E5A230"/></g>
</svg>
