<svg width="96" height="96" viewBox="0 0 96 96" fill="none" xmlns="http://www.w3.org/2000/svg">
  <defs><linearGradient id="bg" x1="13" y1="12" x2="84" y2="84" gradientUnits="userSpaceOnUse"><stop stop-color="#EAF7FF"/><stop offset=".55" stop-color="#B9DCFF"/><stop offset="1" stop-color="#FFE1C6"/></linearGradient><filter id="sh" x="7" y="8" width="82" height="84" filterUnits="userSpaceOnUse" color-interpolation-filters="sRGB"><feDropShadow dx="0" dy="12" stdDeviation="10" flood-color="#29466F" flood-opacity=".10"/><feDropShadow dx="0" dy="4" stdDeviation="5" flood-color="#5B9DFF" flood-opacity=".06"/></filter></defs>
  <rect x="8" y="8" width="80" height="80" rx="24" fill="url(#bg)"/>
  <g filter="url(#sh)"><rect x="22" y="24" width="52" height="48" rx="17" fill="#FFFFFF" fill-opacity=".84"/><path fill-rule="evenodd" clip-rule="evenodd" d="M31 65C29.343 65 28 63.657 28 62V35C28 33.343 29.343 32 31 32C32.657 32 34 33.343 34 35V59H67C68.657 59 70 60.343 70 62C70 63.657 68.657 65 67 65H31ZM41 54C38.791 54 37 52.209 37 50V44C37 41.791 38.791 40 41 40C43.209 40 45 41.791 45 44V50C45 52.209 43.209 54 41 54ZM53 54C50.791 54 49 52.209 49 50V36C49 33.791 50.791 32 53 32C55.209 32 57 33.791 57 36V50C57 52.209 55.209 54 53 54ZM65 54C62.791 54 61 52.209 61 50V45C61 42.791 62.791 41 65 41C67.209 41 69 42.791 69 45V50C69 52.209 67.209 54 65 54Z" fill="#284B70"/><circle cx="66" cy="33" r="6" fill="#FF8A3D"/></g>
</svg>
