<svg width="96" height="96" viewBox="0 0 96 96" fill="none" xmlns="http://www.w3.org/2000/svg">
  <defs><linearGradient id="bg" x1="13" y1="12" x2="84" y2="84" gradientUnits="userSpaceOnUse"><stop stop-color="#FFF2E8"/><stop offset=".55" stop-color="#FFB06F"/><stop offset="1" stop-color="#B9DCFF"/></linearGradient><filter id="sh" x="7" y="8" width="82" height="84" filterUnits="userSpaceOnUse" color-interpolation-filters="sRGB"><feDropShadow dx="0" dy="12" stdDeviation="10" flood-color="#29466F" flood-opacity=".10"/><feDropShadow dx="0" dy="4" stdDeviation="5" flood-color="#FF8A3D" flood-opacity=".08"/></filter></defs>
  <rect x="8" y="8" width="80" height="80" rx="24" fill="url(#bg)"/>
  <g filter="url(#sh)"><rect x="22" y="24" width="52" height="48" rx="17" fill="#FFFFFF" fill-opacity=".84"/><path fill-rule="evenodd" clip-rule="evenodd" d="M34 43V37C34 29.268 40.268 23 48 23C55.732 23 62 29.268 62 37V43H64C67.314 43 70 45.686 70 49V66C70 69.314 67.314 72 64 72H32C28.686 72 26 69.314 26 66V49C26 45.686 28.686 43 32 43H34ZM42 43H54V37C54 33.686 51.314 31 48 31C44.686 31 42 33.686 42 37V43ZM48 53C45.791 53 44 54.791 44 57C44 58.306 44.626 59.465 45.594 60.195V64H50.406V60.195C51.374 59.465 52 58.306 52 57C52 54.791 50.209 53 48 53Z" fill="#284B70"/><path d="M61.5 30L68.5 23C69.3 22.2 70.6 22.2 71.4 23L74 25.6C74.8 26.4 74.8 27.7 74 28.5L67 35.5L59.6 37.4L61.5 30Z" fill="#FF8A3D"/></g>
</svg>
