<svg width="96" height="96" viewBox="0 0 96 96" fill="none" xmlns="http://www.w3.org/2000/svg">
  <defs><linearGradient id="bg" x1="13" y1="12" x2="84" y2="84" gradientUnits="userSpaceOnUse"><stop stop-color="#FFF2E8"/><stop offset=".55" stop-color="#FFB06F"/><stop offset="1" stop-color="#B9DCFF"/></linearGradient><filter id="sh" x="7" y="8" width="82" height="84" filterUnits="userSpaceOnUse" color-interpolation-filters="sRGB"><feDropShadow dx="0" dy="12" stdDeviation="10" flood-color="#29466F" flood-opacity=".10"/><feDropShadow dx="0" dy="4" stdDeviation="5" flood-color="#FF8A3D" flood-opacity=".08"/></filter></defs>
  <rect x="8" y="8" width="80" height="80" rx="24" fill="url(#bg)"/>
  <g filter="url(#sh)"><rect x="22" y="24" width="52" height="48" rx="17" fill="#FFFFFF" fill-opacity=".84"/><path fill-rule="evenodd" clip-rule="evenodd" d="M48 28L71 47.2C72.272 48.261 72.444 50.153 71.382 51.425C70.321 52.697 68.429 52.869 67.157 51.807L65 50.008V65C65 68.314 62.314 71 59 71H37C33.686 71 31 68.314 31 65V50.008L28.843 51.807C27.571 52.869 25.679 52.697 24.618 51.425C23.556 50.153 23.728 48.261 25 47.2L48 28ZM43 64H53V53C53 51.343 51.657 50 50 50H46C44.343 50 43 51.343 43 53V64Z" fill="#284B70"/><circle cx="62" cy="42" r="6" fill="#FF8A3D"/></g>
</svg>
