<svg width="96" height="96" viewBox="0 0 96 96" fill="none" xmlns="http://www.w3.org/2000/svg">
  <defs><linearGradient id="bg" x1="13" y1="12" x2="84" y2="84" gradientUnits="userSpaceOnUse"><stop stop-color="#F2F8FF"/><stop offset=".55" stop-color="#B9DCFF"/><stop offset="1" stop-color="#FFE1C6"/></linearGradient><filter id="sh" x="7" y="8" width="82" height="84" filterUnits="userSpaceOnUse" color-interpolation-filters="sRGB"><feDropShadow dx="0" dy="12" stdDeviation="10" flood-color="#29466F" flood-opacity=".10"/><feDropShadow dx="0" dy="4" stdDeviation="5" flood-color="#5B9DFF" flood-opacity=".05"/></filter></defs>
  <rect x="8" y="8" width="80" height="80" rx="24" fill="url(#bg)"/>
  <g filter="url(#sh)"><rect x="22" y="24" width="52" height="48" rx="17" fill="#FFFFFF" fill-opacity=".84"/><path fill-rule="evenodd" clip-rule="evenodd" d="M35 27C31.686 27 29 29.686 29 33V64C29 67.314 31.686 70 35 70H61C64.314 70 67 67.314 67 64V42L52 27H35ZM53 36V43H60L53 36ZM38 49C36.619 49 35.5 50.119 35.5 51.5C35.5 52.881 36.619 54 38 54H58C59.381 54 60.5 52.881 60.5 51.5C60.5 50.119 59.381 49 58 49H38ZM38 59C36.619 59 35.5 60.119 35.5 61.5C35.5 62.881 36.619 64 38 64H50C51.381 64 52.5 62.881 52.5 61.5C52.5 60.119 51.381 59 50 59H38Z" fill="#284B70"/><circle cx="61" cy="62" r="6" fill="#FF8A3D"/></g>
</svg>
