<svg width="96" height="96" viewBox="0 0 96 96" fill="none" xmlns="http://www.w3.org/2000/svg">
  <defs><linearGradient id="bg" x1="13" y1="12" x2="84" y2="84" gradientUnits="userSpaceOnUse"><stop stop-color="#FFF2E8"/><stop offset=".55" stop-color="#FFB06F"/><stop offset="1" stop-color="#D9C9FF"/></linearGradient><filter id="sh" x="7" y="8" width="82" height="84" filterUnits="userSpaceOnUse" color-interpolation-filters="sRGB"><feDropShadow dx="0" dy="12" stdDeviation="10" flood-color="#29466F" flood-opacity=".10"/><feDropShadow dx="0" dy="4" stdDeviation="5" flood-color="#FF8A3D" flood-opacity=".08"/></filter></defs>
  <rect x="8" y="8" width="80" height="80" rx="24" fill="url(#bg)"/>
  <g filter="url(#sh)"><rect x="22" y="24" width="52" height="48" rx="17" fill="#FFFFFF" fill-opacity=".84"/><path fill-rule="evenodd" clip-rule="evenodd" d="M31 30C28.239 30 26 32.239 26 35V61C26 63.761 28.239 66 31 66H65C67.761 66 70 63.761 70 61V35C70 32.239 67.761 30 65 30H31ZM36 39C34.619 39 33.5 40.119 33.5 41.5C33.5 42.881 34.619 44 36 44H49C50.381 44 51.5 42.881 51.5 41.5C51.5 40.119 50.381 39 49 39H36ZM36 52C34.619 52 33.5 53.119 33.5 54.5C33.5 55.881 34.619 57 36 57H45C46.381 57 47.5 55.881 47.5 54.5C47.5 53.119 46.381 52 45 52H36Z" fill="#284B70"/><path fill-rule="evenodd" clip-rule="evenodd" d="M58 37L68 47L58 57V51H53C51.343 51 50 49.657 50 48C50 46.343 51.343 45 53 45H58V37Z" fill="#FF8A3D"/></g>
</svg>
