<svg width="96" height="96" viewBox="0 0 96 96" fill="none" xmlns="http://www.w3.org/2000/svg">
  <defs><linearGradient id="bg" x1="13" y1="12" x2="84" y2="84" gradientUnits="userSpaceOnUse"><stop stop-color="#FFF7D9"/><stop offset=".55" stop-color="#FFCF8E"/><stop offset="1" stop-color="#D8F8FF"/></linearGradient><filter id="sh" x="7" y="8" width="82" height="84" filterUnits="userSpaceOnUse" color-interpolation-filters="sRGB"><feDropShadow dx="0" dy="12" stdDeviation="10" flood-color="#29466F" flood-opacity=".10"/><feDropShadow dx="0" dy="4" stdDeviation="5" flood-color="#FF8A3D" flood-opacity=".08"/></filter></defs>
  <rect x="8" y="8" width="80" height="80" rx="24" fill="url(#bg)"/>
  <g filter="url(#sh)"><rect x="22" y="24" width="52" height="48" rx="17" fill="#FFFFFF" fill-opacity=".84"/><path fill-rule="evenodd" clip-rule="evenodd" d="M33 38C33.328 34.638 36.156 32 39.604 32H56.396C59.844 32 62.672 34.638 63 38L66 65H30L33 38ZM41 41C42.381 41 43.5 39.881 43.5 38.5V37H52.5V38.5C52.5 39.881 53.619 41 55 41C56.381 41 57.5 39.881 57.5 38.5V36C57.5 33.791 55.709 32 53.5 32H42.5C40.291 32 38.5 33.791 38.5 36V38.5C38.5 39.881 39.619 41 41 41Z" fill="#284B70"/><rect x="39" y="50" width="18" height="6" rx="3" fill="#FFFFFF" fill-opacity=".78"/><rect x="54" y="36" width="10" height="13" rx="5" fill="#FF8A3D"/></g>
</svg>
