<svg width="96" height="96" viewBox="0 0 96 96" fill="none" xmlns="http://www.w3.org/2000/svg">
  <defs><linearGradient id="bg" x1="13" y1="12" x2="84" y2="84" gradientUnits="userSpaceOnUse"><stop stop-color="#EAF7FF"/><stop offset=".55" stop-color="#A8D8FF"/><stop offset="1" stop-color="#FFE1C6"/></linearGradient><filter id="sh" x="7" y="8" width="82" height="84" filterUnits="userSpaceOnUse" color-interpolation-filters="sRGB"><feDropShadow dx="0" dy="12" stdDeviation="10" flood-color="#29466F" flood-opacity=".10"/><feDropShadow dx="0" dy="4" stdDeviation="5" flood-color="#5B9DFF" flood-opacity=".06"/></filter></defs>
  <rect x="8" y="8" width="80" height="80" rx="24" fill="url(#bg)"/>
  <g filter="url(#sh)"><rect x="22" y="24" width="52" height="48" rx="17" fill="#FFFFFF" fill-opacity=".84"/><path fill-rule="evenodd" clip-rule="evenodd" d="M28 40C28 36.686 30.686 34 34 34H52C55.314 34 58 36.686 58 40V46H65C66.89 46 68.668 46.89 69.8 48.4L75 55.333V63H69.5C68.26 67.043 64.5 70 60 70C55.5 70 51.74 67.043 50.5 63H43.5C42.26 67.043 38.5 70 34 70C29.5 70 25.74 67.043 24.5 63H21V46C21 42.686 23.686 40 27 40H28ZM60 64C62.209 64 64 62.209 64 60C64 57.791 62.209 56 60 56C57.791 56 56 57.791 56 60C56 62.209 57.791 64 60 64ZM34 64C36.209 64 38 62.209 38 60C38 57.791 36.209 56 34 56C31.791 56 30 57.791 30 60C30 62.209 31.791 64 34 64Z" fill="#284B70"/><rect x="35" y="42" width="15" height="6" rx="3" fill="#FFFFFF" fill-opacity=".78"/><rect x="59" y="38" width="12" height="7" rx="3.5" fill="#FF8A3D"/></g>
</svg>
