<svg width="1024" height="1024" viewBox="0 0 1024 1024" fill="none" xmlns="http://www.w3.org/2000/svg">
<g clip-path="url(#clip0_0_70618)">
<path fill-rule="evenodd" clip-rule="evenodd" d="M486.932 467.975C528.227 467.975 561.703 501.451 561.703 542.747C561.703 563.451 553.287 582.191 539.687 595.731C526.163 609.195 507.519 617.515 486.932 617.515C473.296 617.515 460.551 613.807 449.547 607.431V632.615C449.547 653.263 432.807 669.999 412.159 669.999C414.336 662.469 413.363 641.855 412.228 617.809C410.574 582.787 408.575 540.485 415.467 520.727C424.867 490.183 453.304 467.975 486.932 467.975ZM649.119 467.975C690.415 467.975 723.891 501.451 723.891 542.747C723.891 563.451 715.47 582.191 701.874 595.731C688.35 609.195 669.707 617.515 649.119 617.515C635.483 617.515 622.738 613.807 611.734 607.431V632.615C611.734 653.263 594.995 669.999 574.347 669.999C576.524 662.467 575.551 641.851 574.415 617.804C572.761 582.781 570.763 540.479 577.654 520.723C587.058 490.179 615.491 467.975 649.119 467.975ZM179.54 457.332H235.616C235.616 477.979 218.88 494.719 198.232 494.719H179.54V569.48C179.54 576.368 185.124 581.952 192.012 581.952H240.216C234.524 604.012 214.172 620.179 190.136 619.299C163.028 618.311 142.156 594.751 142.156 567.624V506.868C142.156 500.156 136.716 494.719 130.008 494.719H111V488.488C111 471.28 124.948 457.332 142.156 457.332V432.383C142.156 425.516 147.724 419.948 154.592 419.948H179.54V457.332ZM246.11 554.046C238.83 504.319 280.554 462.138 330.166 468.638C367.618 473.55 394.822 506.951 394.822 544.731V617.515C394.694 617.427 394.57 617.339 394.45 617.251C382.81 608.907 368.294 605.711 354.33 608.863C349.081 610.048 344.817 611.279 340.898 612.41C331.403 615.15 323.944 617.302 309.458 616.787C279.542 615.723 250.446 583.671 246.11 554.046ZM811.308 467.975C852.599 467.975 886.079 501.451 886.079 542.747C886.079 563.451 877.659 582.191 864.063 595.731C850.54 609.195 831.891 617.515 811.308 617.515C770.012 617.515 736.531 584.039 736.531 542.747C736.531 501.451 770.012 467.975 811.308 467.975ZM320.054 505.359C299.402 505.359 282.666 522.099 282.666 542.747C282.666 563.395 299.402 580.13 320.054 580.13C340.698 580.13 357.435 563.395 357.435 542.747C357.435 522.099 340.698 505.359 320.054 505.359ZM486.932 505.359C466.284 505.359 449.547 522.099 449.547 542.747C449.547 563.395 466.284 580.13 486.932 580.13C507.579 580.13 524.315 563.394 524.315 542.747C524.315 522.099 507.579 505.359 486.932 505.359ZM649.119 505.359C628.471 505.359 611.735 522.099 611.734 542.747C611.734 563.395 628.471 580.13 649.119 580.13C669.767 580.13 686.503 563.394 686.503 542.747C686.503 522.099 669.767 505.359 649.119 505.359ZM811.308 505.359C790.66 505.359 773.919 522.099 773.919 542.747C773.919 563.395 790.66 580.13 811.308 580.13C831.951 580.13 848.691 563.395 848.691 542.747C848.691 522.099 831.951 505.359 811.308 505.359ZM894.196 492.388C875.904 483.964 892.481 440.648 905.185 443.156C917.888 445.664 907.76 498.632 894.196 492.388ZM842.919 393.979C859.583 384.671 885.383 462.056 865.051 467.456C837.631 474.735 826.251 403.291 842.919 393.979ZM746.482 352.072C761.927 334.365 837.654 435.5 815.455 448.76C785.515 466.644 731.042 369.78 746.482 352.072Z" fill="#FF8A3D"/>
</g>
<defs>
<clipPath id="clip0_0_70618">
<rect width="1024" height="1024" fill="white"/>
</clipPath>
</defs>
</svg>
