<svg width="320" height="320" viewBox="0 0 320 320" fill="none" xmlns="http://www.w3.org/2000/svg">
  <defs>
    <radialGradient id="canvas" cx="0" cy="0" r="1" gradientUnits="userSpaceOnUse" gradientTransform="translate(164 106) rotate(116) scale(210 188)">
      <stop stop-color="#FFF4EA"/>
      <stop offset="0.55" stop-color="#F2FAFF"/>
      <stop offset="1" stop-color="#FFFFFF"/>
    </radialGradient>
    <linearGradient id="body" x1="104" y1="82" x2="222" y2="230" gradientUnits="userSpaceOnUse">
      <stop stop-color="#F8FCFF"/>
      <stop offset="0.48" stop-color="#C7E5FF"/>
      <stop offset="1" stop-color="#FFE0C2"/>
    </linearGradient>
    <linearGradient id="face" x1="112" y1="126" x2="214" y2="194" gradientUnits="userSpaceOnUse">
      <stop stop-color="#123D8E"/>
      <stop offset="1" stop-color="#071B4D"/>
    </linearGradient>
    <filter id="shadow" x="66" y="61" width="189" height="201" filterUnits="userSpaceOnUse" color-interpolation-filters="sRGB">
      <feDropShadow dx="0" dy="18" stdDeviation="18" flood-color="#0F172A" flood-opacity="0.10"/>
      <feDropShadow dx="0" dy="8" stdDeviation="12" flood-color="#FF8A3D" flood-opacity="0.10"/>
    </filter>
  </defs>
  <rect width="320" height="320" rx="64" fill="url(#canvas)"/>
  <circle cx="228" cy="103" r="20" fill="#7BE7E4" fill-opacity="0.22"/>
  <circle cx="93" cy="216" r="16" fill="#FFB06F" fill-opacity="0.24"/>
  <g filter="url(#shadow)">
    <path d="M160 78c49 0 86 35 86 81 0 45-37 81-86 81-11 0-22-2-32-5l-23 15c-6 4-14-2-11-9l9-23c-18-15-29-36-29-59 0-46 37-81 86-81Z" fill="url(#body)"/>
    <path d="M118 130c0-21 17-37 38-37h15c23 0 42 18 42 41v33c0 25-20 45-45 45h-15c-27 0-49-22-49-49 0-18 5-33 14-43Z" fill="#FFFFFF" fill-opacity="0.64"/>
    <rect x="105" y="124" width="110" height="75" rx="37.5" fill="url(#face)"/>
    <path d="M120 145c14-14 34-22 57-22 16 0 31 4 42 11-13-4-27-6-42-6-29 0-53 9-65 24 1-3 2-5 8-7Z" fill="#FFFFFF" fill-opacity="0.12"/>
    <ellipse cx="134" cy="160" rx="7" ry="13" fill="#F8FBFF"/>
    <ellipse cx="184" cy="160" rx="7" ry="13" fill="#F8FBFF"/>
    <path d="M159 154l-9 9 9 8" stroke="#F8FBFF" stroke-width="6" stroke-linecap="round" stroke-linejoin="round"/>
    <path d="M151 182c8 6 19 6 27 0" stroke="#AEEBFF" stroke-width="4" stroke-linecap="round"/>
    <circle cx="222" cy="128" r="8" fill="#7BE7E4" fill-opacity="0.74"/>
    <circle cx="104" cy="128" r="7" fill="#FFB06F" fill-opacity="0.78"/>
  </g>
</svg>
