<svg width="320" height="320" viewBox="0 0 320 320" fill="none" xmlns="http://www.w3.org/2000/svg">
  <defs>
    <radialGradient id="canvas" cx="0" cy="0" r="1" gradientUnits="userSpaceOnUse" gradientTransform="translate(160 92) rotate(115) scale(218 190)">
      <stop stop-color="#FFF6EA"/>
      <stop offset="0.54" stop-color="#F3FAFF"/>
      <stop offset="1" stop-color="#FFFFFF"/>
    </radialGradient>
    <linearGradient id="head" x1="100" y1="76" x2="220" y2="203" gradientUnits="userSpaceOnUse">
      <stop stop-color="#FCFEFF"/>
      <stop offset="0.46" stop-color="#CBEAFF"/>
      <stop offset="1" stop-color="#FFE1C2"/>
    </linearGradient>
    <linearGradient id="body" x1="103" y1="176" x2="219" y2="254" gradientUnits="userSpaceOnUse">
      <stop stop-color="#FFFFFF"/>
      <stop offset="0.48" stop-color="#E7F5FF"/>
      <stop offset="1" stop-color="#FFD7B2"/>
    </linearGradient>
    <linearGradient id="face" x1="112" y1="113" x2="210" y2="178" gradientUnits="userSpaceOnUse">
      <stop stop-color="#174698"/>
      <stop offset="1" stop-color="#071A4A"/>
    </linearGradient>
    <filter id="entityShadow" x="58" y="52" width="224" height="246" filterUnits="userSpaceOnUse" color-interpolation-filters="sRGB">
      <feDropShadow dx="0" dy="20" stdDeviation="18" flood-color="#2F5F8A" flood-opacity="0.10"/>
      <feDropShadow dx="0" dy="8" stdDeviation="14" flood-color="#FF8A3D" flood-opacity="0.12"/>
    </filter>
    <filter id="smallShadow" x="82" y="183" width="154" height="86" filterUnits="userSpaceOnUse" color-interpolation-filters="sRGB">
      <feDropShadow dx="0" dy="14" stdDeviation="12" flood-color="#FF8A3D" flood-opacity="0.12"/>
    </filter>
  </defs>
  <rect width="320" height="320" rx="64" fill="url(#canvas)"/>
  <circle cx="226" cy="103" r="17" fill="#7BE7E4" fill-opacity="0.18"/>
  <circle cx="94" cy="213" r="14" fill="#FFB06F" fill-opacity="0.18"/>
  <g filter="url(#entityShadow)">
    <ellipse cx="160" cy="236" rx="62" ry="17" fill="#FFB06F" fill-opacity="0.16"/>
    <rect x="102" y="164" width="118" height="92" rx="40" fill="url(#body)"/>
    <path d="M124 204c14 10 39 16 61 6" stroke="#FFFFFF" stroke-opacity="0.72" stroke-width="10" stroke-linecap="round"/>
    <path d="M110 87c30-29 87-29 117 1 25 25 25 71 2 98-22 26-56 35-89 25l-23 15c-6 4-13-2-10-9l8-24c-30-25-33-67-5-106Z" fill="url(#head)"/>
    <path d="M122 96c23-16 62-20 91 4-24-10-59-8-83 6-6 4-12 2-8-10Z" fill="#FFFFFF" fill-opacity="0.52"/>
    <rect x="102" y="115" width="117" height="77" rx="38.5" fill="url(#face)"/>
    <path d="M121 134c15-11 36-17 59-16 13 0 26 3 37 8-11-3-24-4-37-4-31 0-55 9-66 22 1-4 3-7 7-10Z" fill="#FFFFFF" fill-opacity="0.12"/>
    <ellipse cx="136" cy="153" rx="7" ry="13" fill="#F8FBFF"/>
    <ellipse cx="184" cy="153" rx="7" ry="13" fill="#F8FBFF"/>
    <path d="M160 147l-9 9 9 8" stroke="#F8FBFF" stroke-width="6" stroke-linecap="round" stroke-linejoin="round"/>
    <path d="M151 176c8 6 21 6 29 0" stroke="#AEEBFF" stroke-width="4" stroke-linecap="round"/>
    <circle cx="222" cy="124" r="7" fill="#7BE7E4" fill-opacity="0.72"/>
    <circle cx="101" cy="124" r="6" fill="#FFB06F" fill-opacity="0.72"/>
  </g>
  <g filter="url(#smallShadow)">
    <rect x="124" y="214" width="34" height="16" rx="8" fill="#FFFFFF" fill-opacity="0.76"/>
    <rect x="168" y="214" width="28" height="16" rx="8" fill="#FFFFFF" fill-opacity="0.58"/>
  </g>
</svg>
