<svg width="320" height="320" viewBox="0 0 320 320" fill="none" xmlns="http://www.w3.org/2000/svg">
  <defs>
    <radialGradient id="canvas" cx="0" cy="0" r="1" gradientUnits="userSpaceOnUse" gradientTransform="translate(162 102) rotate(118) scale(220 190)">
      <stop stop-color="#FFF5EA"/>
      <stop offset="0.54" stop-color="#F4FAFF"/>
      <stop offset="1" stop-color="#FFFFFF"/>
    </radialGradient>
    <radialGradient id="warm" cx="0" cy="0" r="1" gradientUnits="userSpaceOnUse" gradientTransform="translate(155 146) rotate(72) scale(102 88)">
      <stop stop-color="#FFF7DC" stop-opacity="0.98"/>
      <stop offset="0.35" stop-color="#FFB06F" stop-opacity="0.76"/>
      <stop offset="0.72" stop-color="#FF8A3D" stop-opacity="0.38"/>
      <stop offset="1" stop-color="#FF8A3D" stop-opacity="0"/>
    </radialGradient>
    <radialGradient id="cool" cx="0" cy="0" r="1" gradientUnits="userSpaceOnUse" gradientTransform="translate(194 137) rotate(102) scale(108 80)">
      <stop stop-color="#B9F3FF" stop-opacity="0.52"/>
      <stop offset="0.72" stop-color="#7BE7E4" stop-opacity="0.16"/>
      <stop offset="1" stop-color="#7BE7E4" stop-opacity="0"/>
    </radialGradient>
    <filter id="blurA" x="44" y="54" width="247" height="236" filterUnits="userSpaceOnUse" color-interpolation-filters="sRGB">
      <feGaussianBlur stdDeviation="18"/>
    </filter>
    <filter id="blurB" x="58" y="62" width="220" height="218" filterUnits="userSpaceOnUse" color-interpolation-filters="sRGB">
      <feGaussianBlur stdDeviation="10"/>
    </filter>
    <filter id="softShadow" x="70" y="102" width="206" height="164" filterUnits="userSpaceOnUse" color-interpolation-filters="sRGB">
      <feDropShadow dx="0" dy="28" stdDeviation="22" flood-color="#FF8A3D" flood-opacity="0.16"/>
      <feDropShadow dx="0" dy="16" stdDeviation="18" flood-color="#5B9DFF" flood-opacity="0.10"/>
    </filter>
  </defs>
  <rect width="320" height="320" rx="64" fill="url(#canvas)"/>
  <g filter="url(#blurA)">
    <path d="M114 102c36-35 109-16 129 37 16 43-23 86-75 89-52 3-91-27-89-70 1-22 11-42 35-56Z" fill="url(#warm)"/>
    <path d="M193 83c42 16 62 55 45 88-17 33-71 37-106 17-31-18-30-58-6-83 16-17 41-24 67-12Z" fill="url(#cool)"/>
  </g>
  <g filter="url(#softShadow)">
    <ellipse cx="160" cy="189" rx="80" ry="23" fill="#FFB06F" fill-opacity="0.18"/>
    <path d="M101 155c26-45 99-68 145-31" stroke="#FFFFFF" stroke-opacity="0.68" stroke-width="10" stroke-linecap="round"/>
    <path d="M105 177c38 25 101 24 143-7" stroke="#7BE7E4" stroke-opacity="0.34" stroke-width="7" stroke-linecap="round"/>
  </g>
  <g filter="url(#blurB)">
    <circle cx="146" cy="139" r="28" fill="#FFF8DC" fill-opacity="0.54"/>
    <circle cx="182" cy="150" r="42" fill="#FF8A3D" fill-opacity="0.22"/>
  </g>
  <circle cx="224" cy="113" r="7" fill="#7BE7E4" fill-opacity="0.5"/>
  <circle cx="106" cy="196" r="6" fill="#FFB06F" fill-opacity="0.48"/>
</svg>
