<svg width="640" height="320" viewBox="0 0 640 320" fill="none" xmlns="http://www.w3.org/2000/svg">
  <defs>
    <linearGradient id="bg" x1="0" y1="0" x2="640" y2="320" gradientUnits="userSpaceOnUse">
      <stop stop-color="#FFF8F2"/>
      <stop offset="0.55" stop-color="#F5FBFF"/>
      <stop offset="1" stop-color="#FFFFFF"/>
    </linearGradient>
    <linearGradient id="a" x1="72" y1="76" x2="184" y2="188" gradientUnits="userSpaceOnUse">
      <stop stop-color="#FFF1E6"/>
      <stop offset="0.54" stop-color="#FFB06F"/>
      <stop offset="1" stop-color="#D9F8FF"/>
    </linearGradient>
    <linearGradient id="b" x1="208" y1="76" x2="320" y2="188" gradientUnits="userSpaceOnUse">
      <stop stop-color="#F1F8FF"/>
      <stop offset="0.54" stop-color="#B9DCFF"/>
      <stop offset="1" stop-color="#FFE2C5"/>
    </linearGradient>
    <linearGradient id="c" x1="344" y1="76" x2="456" y2="188" gradientUnits="userSpaceOnUse">
      <stop stop-color="#E6FFF3"/>
      <stop offset="0.54" stop-color="#A8F3CF"/>
      <stop offset="1" stop-color="#FFF1C8"/>
    </linearGradient>
    <linearGradient id="d" x1="480" y1="76" x2="592" y2="188" gradientUnits="userSpaceOnUse">
      <stop stop-color="#FFF4C8"/>
      <stop offset="0.5" stop-color="#FFB06F"/>
      <stop offset="1" stop-color="#FFD9E8"/>
    </linearGradient>
    <filter id="tileShadow" x="54" y="58" width="557" height="177" filterUnits="userSpaceOnUse" color-interpolation-filters="sRGB">
      <feDropShadow dx="0" dy="14" stdDeviation="14" flood-color="#2F5F8A" flood-opacity="0.08"/>
      <feDropShadow dx="0" dy="4" stdDeviation="8" flood-color="#FF8A3D" flood-opacity="0.07"/>
    </filter>
  </defs>
  <rect width="640" height="320" rx="64" fill="url(#bg)"/>
  <g filter="url(#tileShadow)">
    <rect x="72" y="78" width="112" height="112" rx="28" fill="url(#a)"/>
    <rect x="208" y="78" width="112" height="112" rx="28" fill="url(#b)"/>
    <rect x="344" y="78" width="112" height="112" rx="28" fill="url(#c)"/>
    <rect x="480" y="78" width="112" height="112" rx="28" fill="url(#d)"/>

    <g aria-label="payment icon">
      <rect x="96" y="112" width="58" height="44" rx="12" fill="#FFFFFF" fill-opacity="0.80"/>
      <rect x="105" y="123" width="34" height="8" rx="4" fill="#1F5DAE" fill-opacity="0.40"/>
      <rect x="105" y="142" width="22" height="8" rx="4" fill="#1F5DAE" fill-opacity="0.24"/>
      <circle cx="152" cy="146" r="13" fill="#FF8A3D"/>
      <circle cx="152" cy="146" r="5" fill="#FFFFFF" fill-opacity="0.70"/>
    </g>

    <g aria-label="order icon">
      <rect x="239" y="102" width="50" height="68" rx="14" fill="#FFFFFF" fill-opacity="0.80"/>
      <rect x="249" y="116" width="29" height="7" rx="3.5" fill="#5B9DFF" fill-opacity="0.48"/>
      <rect x="249" y="136" width="31" height="7" rx="3.5" fill="#1F5DAE" fill-opacity="0.30"/>
      <rect x="249" y="156" width="23" height="7" rx="3.5" fill="#1F5DAE" fill-opacity="0.22"/>
      <circle cx="281" cy="113" r="7" fill="#FF8A3D" fill-opacity="0.72"/>
    </g>

    <g aria-label="add icon">
      <rect x="374" y="104" width="52" height="64" rx="15" fill="#FFFFFF" fill-opacity="0.80"/>
      <path d="M384 136h32" stroke="#0E9F6E" stroke-opacity="0.56" stroke-width="8" stroke-linecap="round"/>
      <path d="M400 120v32" stroke="#0E9F6E" stroke-opacity="0.56" stroke-width="8" stroke-linecap="round"/>
      <circle cx="424" cy="113" r="7" fill="#5B9DFF" fill-opacity="0.44"/>
    </g>

    <g aria-label="data icon">
      <rect x="506" y="108" width="60" height="56" rx="16" fill="#FFFFFF" fill-opacity="0.80"/>
      <path d="M518 140h14l9-14 12 24 9-14" stroke="#E95F1E" stroke-opacity="0.62" stroke-width="7" stroke-linecap="round" stroke-linejoin="round"/>
      <circle cx="522" cy="126" r="7" fill="#FFB06F" fill-opacity="0.62"/>
      <circle cx="562" cy="126" r="7" fill="#7BE7E4" fill-opacity="0.52"/>
    </g>
  </g>
  <path d="M112 226h416" stroke="#B9DCFF" stroke-opacity="0.20" stroke-width="8" stroke-linecap="round"/>
  <path d="M112 226h182" stroke="#FFB06F" stroke-opacity="0.38" stroke-width="8" stroke-linecap="round"/>
</svg>
