<svg width="390" height="260" viewBox="0 0 390 260" fill="none" xmlns="http://www.w3.org/2000/svg">
  <defs>
    <linearGradient id="bg" x1="22" y1="18" x2="371" y2="238" gradientUnits="userSpaceOnUse">
      <stop stop-color="#FFF8F2"/>
      <stop offset="0.5" stop-color="#F2FAFF"/>
      <stop offset="1" stop-color="#FFFFFF"/>
    </linearGradient>
    <linearGradient id="device" x1="108" y1="72" x2="269" y2="209" gradientUnits="userSpaceOnUse">
      <stop stop-color="#EAF7FF"/>
      <stop offset="0.52" stop-color="#B9DCFF"/>
      <stop offset="1" stop-color="#FFB06F"/>
    </linearGradient>
    <linearGradient id="screen" x1="134" y1="92" x2="253" y2="151" gradientUnits="userSpaceOnUse">
      <stop stop-color="#FFFFFF" stop-opacity="0.92"/>
      <stop offset="1" stop-color="#EAF7FF" stop-opacity="0.78"/>
    </linearGradient>
    <linearGradient id="gear" x1="230" y1="125" x2="296" y2="193" gradientUnits="userSpaceOnUse">
      <stop stop-color="#FFF4D8"/>
      <stop offset="0.52" stop-color="#FFB06F"/>
      <stop offset="1" stop-color="#7BE7E4"/>
    </linearGradient>
    <filter id="shadow" x="72" y="46" width="244" height="194" filterUnits="userSpaceOnUse" color-interpolation-filters="sRGB">
      <feDropShadow dx="0" dy="16" stdDeviation="16" flood-color="#0F172A" flood-opacity="0.10"/>
      <feDropShadow dx="0" dy="6" stdDeviation="10" flood-color="#FF8A3D" flood-opacity="0.10"/>
    </filter>
  </defs>
  <rect width="390" height="260" rx="40" fill="url(#bg)"/>
  <g filter="url(#shadow)">
    <path d="M132 70h103c18 0 33 15 33 33v73c0 18-15 33-33 33H132c-18 0-33-15-33-33v-73c0-18 15-33 33-33Z" fill="url(#device)"/>
    <path d="M142 92h82c13 0 23 10 23 23v34c0 13-10 23-23 23h-82c-13 0-23-10-23-23v-34c0-13 10-23 23-23Z" fill="url(#screen)"/>
    <path d="M136 124h77M136 146h51" stroke="#5B9DFF" stroke-opacity="0.34" stroke-width="10" stroke-linecap="round"/>
    <circle cx="231" cy="153" r="11" fill="#FF8A3D" fill-opacity="0.82"/>
    <path d="M147 202h75" stroke="#FFFFFF" stroke-opacity="0.78" stroke-width="12" stroke-linecap="round"/>
    <path d="M281 153l10 4 3 11-6 9 2 11-10 5-10-4-10 6-10-6-2-11-8-7 4-11-3-11 9-7 5-10 11 1 9-7 10 7 11-1 6 10-2 11Z" fill="url(#gear)"/>
    <circle cx="270" cy="164" r="20" fill="#FFFFFF" fill-opacity="0.62"/>
    <circle cx="270" cy="164" r="8" fill="#1F5DAE" fill-opacity="0.48"/>
    <circle cx="102" cy="83" r="13" fill="#7BE7E4" fill-opacity="0.44"/>
    <circle cx="288" cy="84" r="9" fill="#FFB06F" fill-opacity="0.72"/>
  </g>
</svg>
