<svg width="96" height="96" viewBox="0 0 96 96" fill="none" xmlns="http://www.w3.org/2000/svg">
  <defs><linearGradient id="g" x1="14" y1="12" x2="84" y2="84" gradientUnits="userSpaceOnUse"><stop stop-color="#F3F0FF"/><stop offset=".55" stop-color="#D4C4FF"/><stop offset="1" stop-color="#FFE0C2"/></linearGradient><filter id="s" x="0" y="2" width="96" height="96" filterUnits="userSpaceOnUse" color-interpolation-filters="sRGB"><feDropShadow dx="0" dy="10" stdDeviation="9" flood-color="#29466F" flood-opacity=".08"/><feDropShadow dx="0" dy="3" stdDeviation="5" flood-color="#FF8A3D" flood-opacity=".06"/></filter></defs>
  <g filter="url(#s)"><rect x="10" y="10" width="76" height="76" rx="22" fill="url(#g)"/><path fill-rule="evenodd" clip-rule="evenodd" d="M31 28C27.6863 28 25 30.6863 25 34V38C25 41.3137 27.6863 44 31 44H35C38.3137 44 41 41.3137 41 38V34C41 30.6863 38.3137 28 35 28H31ZM55 28C51.6863 28 49 30.6863 49 34V38C49 41.3137 51.6863 44 55 44H59C62.3137 44 65 41.3137 65 38V34C65 30.6863 62.3137 28 59 28H55ZM25 58C25 54.6863 27.6863 52 31 52H35C38.3137 52 41 54.6863 41 58V62C41 65.3137 38.3137 68 35 68H31C27.6863 68 25 65.3137 25 62V58ZM55 52C51.6863 52 49 54.6863 49 58V62C49 65.3137 51.6863 68 55 68H59C62.3137 68 65 65.3137 65 62V58C65 54.6863 62.3137 52 59 52H55Z" fill="#FFFFFF" fill-opacity=".88"/><circle cx="66" cy="33" r="7" fill="#FF8A3D"/></g>
</svg>
