<svg width="96" height="96" viewBox="0 0 96 96" fill="none" xmlns="http://www.w3.org/2000/svg">
  <defs><linearGradient id="g" x1="14" y1="12" x2="84" y2="84" gradientUnits="userSpaceOnUse"><stop stop-color="#FFF2E8"/><stop offset=".55" stop-color="#FFB06F"/><stop offset="1" stop-color="#D9C9FF"/></linearGradient><filter id="s" x="0" y="2" width="96" height="96" filterUnits="userSpaceOnUse" color-interpolation-filters="sRGB"><feDropShadow dx="0" dy="10" stdDeviation="9" flood-color="#29466F" flood-opacity=".08"/><feDropShadow dx="0" dy="3" stdDeviation="5" flood-color="#FF8A3D" flood-opacity=".09"/></filter></defs>
  <g filter="url(#s)"><rect x="10" y="10" width="76" height="76" rx="22" fill="url(#g)"/><path fill-rule="evenodd" clip-rule="evenodd" d="M28 29C25.7909 29 24 30.7909 24 33V63C24 65.2091 25.7909 67 28 67H68C70.2091 67 72 65.2091 72 63V33C72 30.7909 70.2091 29 68 29H28ZM34 38C32.3431 38 31 39.3431 31 41C31 42.6569 32.3431 44 34 44H47C48.6569 44 50 42.6569 50 41C50 39.3431 48.6569 38 47 38H34ZM34 52C32.3431 52 31 53.3431 31 55C31 56.6569 32.3431 58 34 58H43C44.6569 58 46 56.6569 46 55C46 53.3431 44.6569 52 43 52H34Z" fill="#FFFFFF" fill-opacity=".86"/><path fill-rule="evenodd" clip-rule="evenodd" d="M57.4 36.2C58.572 35.029 60.471 35.029 61.642 36.2L69.321 43.879C70.493 45.05 70.493 46.95 69.321 48.121L61.642 55.8C60.471 56.971 58.572 56.971 57.4 55.8C56.229 54.629 56.229 52.729 57.4 51.558L59.958 49H54C52.343 49 51 47.657 51 46C51 44.343 52.343 43 54 43H59.958L57.4 40.442C56.229 39.271 56.229 37.371 57.4 36.2Z" fill="#FF8A3D"/></g>
</svg>
