<svg width="96" height="96" viewBox="0 0 96 96" fill="none" xmlns="http://www.w3.org/2000/svg">
  <defs><linearGradient id="g" x1="14" y1="12" x2="84" y2="84" gradientUnits="userSpaceOnUse"><stop stop-color="#F2F8FF"/><stop offset=".55" stop-color="#C7D9EF"/><stop offset="1" stop-color="#FFE0C2"/></linearGradient><filter id="s" x="0" y="2" width="96" height="96" filterUnits="userSpaceOnUse" color-interpolation-filters="sRGB"><feDropShadow dx="0" dy="10" stdDeviation="9" flood-color="#29466F" flood-opacity=".08"/><feDropShadow dx="0" dy="3" stdDeviation="5" flood-color="#FF8A3D" flood-opacity=".06"/></filter></defs>
  <g filter="url(#s)"><rect x="10" y="10" width="76" height="76" rx="22" fill="url(#g)"/><path fill-rule="evenodd" clip-rule="evenodd" d="M48 25C35.297 25 25 35.297 25 48C25 60.703 35.297 71 48 71C60.703 71 71 60.703 71 48C71 35.297 60.703 25 48 25ZM48 35C45.791 35 44 36.791 44 39C44 41.209 45.791 43 48 43C50.209 43 52 41.209 52 39C52 36.791 50.209 35 48 35ZM48 47C46.343 47 45 48.343 45 50V60C45 61.657 46.343 63 48 63C49.657 63 51 61.657 51 60V50C51 48.343 49.657 47 48 47Z" fill="#FFFFFF" fill-opacity=".88"/><circle cx="65" cy="31" r="7" fill="#FF8A3D"/></g>
</svg>
