<svg width="96" height="96" viewBox="0 0 96 96" fill="none" xmlns="http://www.w3.org/2000/svg">
  <defs><linearGradient id="g" x1="14" y1="12" x2="84" y2="84" gradientUnits="userSpaceOnUse"><stop stop-color="#F2F8FF"/><stop offset=".55" stop-color="#C7D9EF"/><stop offset="1" stop-color="#FFE0C2"/></linearGradient><filter id="s" x="0" y="2" width="96" height="96" filterUnits="userSpaceOnUse" color-interpolation-filters="sRGB"><feDropShadow dx="0" dy="10" stdDeviation="9" flood-color="#29466F" flood-opacity=".08"/><feDropShadow dx="0" dy="3" stdDeviation="5" flood-color="#FF8A3D" flood-opacity=".07"/></filter></defs>
  <g filter="url(#s)"><rect x="10" y="10" width="76" height="76" rx="22" fill="url(#g)"/><path fill-rule="evenodd" clip-rule="evenodd" d="M52.655 26C54.294 26 55.691 27.191 55.951 28.809L56.602 32.862C57.373 33.195 58.105 33.619 58.785 34.124L62.597 32.604C64.12 31.997 65.858 32.588 66.69 34L70.018 39.765C70.839 41.187 70.488 42.998 69.191 44.003L65.946 46.517C66.023 47.006 66.063 47.501 66.063 48C66.063 48.499 66.023 48.994 65.946 49.483L69.191 51.997C70.488 53.002 70.839 54.813 70.018 56.235L66.69 62C65.858 63.412 64.12 64.003 62.597 63.396L58.785 61.876C58.105 62.381 57.373 62.805 56.602 63.138L55.951 67.191C55.691 68.809 54.294 70 52.655 70H43.345C41.706 70 40.309 68.809 40.049 67.191L39.398 63.138C38.627 62.805 37.895 62.381 37.215 61.876L33.403 63.396C31.88 64.003 30.142 63.412 29.31 62L25.982 56.235C25.161 54.813 25.512 53.002 26.809 51.997L30.054 49.483C29.977 48.994 29.937 48.499 29.937 48C29.937 47.501 29.977 47.006 30.054 46.517L26.809 44.003C25.512 42.998 25.161 41.187 25.982 39.765L29.31 34C30.142 32.588 31.88 31.997 33.403 32.604L37.215 34.124C37.895 33.619 38.627 33.195 39.398 32.862L40.049 28.809C40.309 27.191 41.706 26 43.345 26H52.655ZM48 57C52.971 57 57 52.971 57 48C57 43.029 52.971 39 48 39C43.029 39 39 43.029 39 48C39 52.971 43.029 57 48 57Z" fill="#FFFFFF" fill-opacity=".88"/><circle cx="48" cy="48" r="5" fill="#FF8A3D"/></g>
</svg>
