<svg width="96" height="96" viewBox="0 0 96 96" fill="none" xmlns="http://www.w3.org/2000/svg">
  <defs><linearGradient id="g" x1="14" y1="12" x2="84" y2="84" gradientUnits="userSpaceOnUse"><stop stop-color="#E8FFF4"/><stop offset=".55" stop-color="#B9E7FF"/><stop offset="1" stop-color="#FFE0C2"/></linearGradient><filter id="s" x="0" y="2" width="96" height="96" filterUnits="userSpaceOnUse" color-interpolation-filters="sRGB"><feDropShadow dx="0" dy="10" stdDeviation="9" flood-color="#29466F" flood-opacity=".08"/><feDropShadow dx="0" dy="3" stdDeviation="5" flood-color="#FF8A3D" flood-opacity=".06"/></filter></defs>
  <g filter="url(#s)"><rect x="10" y="10" width="76" height="76" rx="22" fill="url(#g)"/><path fill-rule="evenodd" clip-rule="evenodd" d="M48 25C35.297 25 25 35.297 25 48C25 60.703 35.297 71 48 71C60.703 71 71 60.703 71 48C71 35.297 60.703 25 48 25ZM35.6 42H41.2C41.594 38.862 42.332 35.989 43.361 33.702C39.914 34.801 37.084 37.817 35.6 42ZM41.2 54H35.6C37.084 58.183 39.914 61.199 43.361 62.298C42.332 60.011 41.594 57.138 41.2 54ZM54.8 54C54.406 57.138 53.668 60.011 52.639 62.298C56.086 61.199 58.916 58.183 60.4 54H54.8ZM60.4 42H54.8C54.406 38.862 53.668 35.989 52.639 33.702C56.086 34.801 58.916 37.817 60.4 42ZM47.5 33C46.885 34.698 46.212 37.71 45.816 42H50.184C49.788 37.71 49.115 34.698 48.5 33H47.5ZM45.4 48C45.4 48.69 45.418 49.358 45.45 50H50.55C50.582 49.358 50.6 48.69 50.6 48C50.6 47.31 50.582 46.642 50.55 46H45.45C45.418 46.642 45.4 47.31 45.4 48ZM47.5 63C46.885 61.302 46.212 58.29 45.816 54H50.184C49.788 58.29 49.115 61.302 48.5 63H47.5Z" fill="#FFFFFF" fill-opacity=".88"/><circle cx="66" cy="31" r="7" fill="#FF8A3D"/></g>
</svg>
