<svg width="96" height="96" viewBox="0 0 96 96" fill="none" xmlns="http://www.w3.org/2000/svg">
  <defs><linearGradient id="g" x1="14" y1="12" x2="84" y2="84" gradientUnits="userSpaceOnUse"><stop stop-color="#E8FFF4"/><stop offset=".55" stop-color="#A9F2D1"/><stop offset="1" stop-color="#B9DCFF"/></linearGradient><filter id="s" x="0" y="2" width="96" height="96" filterUnits="userSpaceOnUse" color-interpolation-filters="sRGB"><feDropShadow dx="0" dy="10" stdDeviation="9" flood-color="#29466F" flood-opacity=".08"/><feDropShadow dx="0" dy="3" stdDeviation="5" flood-color="#0E9F6E" flood-opacity=".06"/></filter></defs>
  <g filter="url(#s)"><rect x="10" y="10" width="76" height="76" rx="22" fill="url(#g)"/><path fill-rule="evenodd" clip-rule="evenodd" d="M48 24L68 32V45C68 58.5 59.5 68.5 48 72C36.5 68.5 28 58.5 28 45V32L48 24ZM48 37C43.582 37 40 40.582 40 45C40 47.961 41.609 50.548 44 51.929V60H52V51.929C54.391 50.548 56 47.961 56 45C56 40.582 52.418 37 48 37Z" fill="#FFFFFF" fill-opacity=".88"/><circle cx="48" cy="45" r="3" fill="#0E9F6E" fill-opacity=".62"/></g>
</svg>
