<svg width="96" height="96" viewBox="0 0 96 96" fill="none" xmlns="http://www.w3.org/2000/svg">
  <defs><linearGradient id="g" x1="14" y1="12" x2="84" y2="84" gradientUnits="userSpaceOnUse"><stop stop-color="#FFF2E8"/><stop offset=".55" stop-color="#FFB06F"/><stop offset="1" stop-color="#CFF7FF"/></linearGradient><filter id="s" x="0" y="2" width="96" height="96" filterUnits="userSpaceOnUse" color-interpolation-filters="sRGB"><feDropShadow dx="0" dy="10" stdDeviation="9" flood-color="#29466F" flood-opacity=".08"/><feDropShadow dx="0" dy="3" stdDeviation="5" flood-color="#FF8A3D" flood-opacity=".09"/></filter></defs>
  <g filter="url(#s)"><rect x="10" y="10" width="76" height="76" rx="22" fill="url(#g)"/><path fill-rule="evenodd" clip-rule="evenodd" d="M28 31C28 27.6863 30.6863 25 34 25H62C65.3137 25 68 27.6863 68 31V48C68 51.3137 65.3137 54 62 54H47L36.5 64C35.5608 64.894 34 64.2283 34 62.931V54C30.6863 54 28 51.3137 28 48V31ZM36 35.5C36 34.1193 37.1193 33 38.5 33H57.5C58.8807 33 60 34.1193 60 35.5C60 36.8807 58.8807 38 57.5 38H38.5C37.1193 38 36 36.8807 36 35.5ZM38.5 43C37.1193 43 36 44.1193 36 45.5C36 46.8807 37.1193 48 38.5 48H51.5C52.8807 48 54 46.8807 54 45.5C54 44.1193 52.8807 43 51.5 43H38.5Z" fill="#FFFFFF" fill-opacity=".86"/><circle cx="65" cy="29" r="8" fill="#FF8A3D"/></g>
</svg>
