<svg width="96" height="96" viewBox="0 0 96 96" fill="none" xmlns="http://www.w3.org/2000/svg">
  <defs><linearGradient id="g" x1="14" y1="12" x2="84" y2="84" gradientUnits="userSpaceOnUse"><stop stop-color="#FFF2E8"/><stop offset=".55" stop-color="#FFB06F"/><stop offset="1" stop-color="#B9DCFF"/></linearGradient><filter id="s" x="0" y="2" width="96" height="96" filterUnits="userSpaceOnUse" color-interpolation-filters="sRGB"><feDropShadow dx="0" dy="10" stdDeviation="9" flood-color="#29466F" flood-opacity=".08"/><feDropShadow dx="0" dy="3" stdDeviation="5" flood-color="#FF8A3D" flood-opacity=".09"/></filter></defs>
  <g filter="url(#s)"><rect x="10" y="10" width="76" height="76" rx="22" fill="url(#g)"/><path fill-rule="evenodd" clip-rule="evenodd" d="M34 42V36C34 28.268 40.268 22 48 22C55.732 22 62 28.268 62 36V42H64C67.314 42 70 44.686 70 48V66C70 69.314 67.314 72 64 72H32C28.686 72 26 69.314 26 66V48C26 44.686 28.686 42 32 42H34ZM42 42H54V36C54 32.686 51.314 30 48 30C44.686 30 42 32.686 42 36V42ZM48 53C45.791 53 44 54.791 44 57C44 58.306 44.626 59.465 45.594 60.195V64H50.406V60.195C51.374 59.465 52 58.306 52 57C52 54.791 50.209 53 48 53Z" fill="#FFFFFF" fill-opacity=".88"/><path d="M61.2 29.2L68.2 22.2C69 21.4 70.3 21.4 71.1 22.2L73.8 24.9C74.6 25.7 74.6 27 73.8 27.8L66.8 34.8L59.5 36.5L61.2 29.2Z" fill="#1F5DAE" fill-opacity=".36"/></g>
</svg>
