<svg width="96" height="96" viewBox="0 0 96 96" fill="none" xmlns="http://www.w3.org/2000/svg">
  <defs><linearGradient id="g" x1="14" y1="12" x2="84" y2="84" gradientUnits="userSpaceOnUse"><stop stop-color="#FFF7D8"/><stop offset=".55" stop-color="#FFD58A"/><stop offset="1" stop-color="#CFF7FF"/></linearGradient><filter id="s" x="0" y="2" width="96" height="96" filterUnits="userSpaceOnUse" color-interpolation-filters="sRGB"><feDropShadow dx="0" dy="10" stdDeviation="9" flood-color="#29466F" flood-opacity=".08"/><feDropShadow dx="0" dy="3" stdDeviation="5" flood-color="#FF8A3D" flood-opacity=".08"/></filter></defs>
  <g filter="url(#s)"><rect x="10" y="10" width="76" height="76" rx="22" fill="url(#g)"/><path fill-rule="evenodd" clip-rule="evenodd" d="M30 29C26.6863 29 24 31.6863 24 35V65C24 68.3137 26.6863 71 30 71H59C62.3137 71 65 68.3137 65 65V35C65 31.6863 62.3137 29 59 29H30ZM31 43H58V63H31V43ZM36 51C36 49.3431 37.3431 48 39 48H45C46.6569 48 48 49.3431 48 51C48 52.6569 46.6569 54 45 54H39C37.3431 54 36 52.6569 36 51Z" fill="#FFFFFF" fill-opacity=".88"/><circle cx="64" cy="61" r="12" fill="#FF8A3D"/><rect x="62" y="54" width="4" height="9" rx="2" fill="#FFFFFF"/><path d="M62.8 61.2C63.37 60.28 64.57 60 65.5 60.55L70.1 63.35L67.45 67.7L62.85 64.9C61.93 64.34 61.64 63.13 62.2 62.2L62.8 61.2Z" fill="#FFFFFF"/></g>
</svg>
