<svg width="96" height="96" viewBox="0 0 96 96" fill="none" xmlns="http://www.w3.org/2000/svg">
  <defs><linearGradient id="g" x1="14" y1="12" x2="84" y2="84" gradientUnits="userSpaceOnUse"><stop stop-color="#EAF7FF"/><stop offset=".55" stop-color="#B9DCFF"/><stop offset="1" stop-color="#D9C9FF"/></linearGradient><filter id="s" x="0" y="2" width="96" height="96" filterUnits="userSpaceOnUse" color-interpolation-filters="sRGB"><feDropShadow dx="0" dy="10" stdDeviation="9" flood-color="#29466F" flood-opacity=".08"/><feDropShadow dx="0" dy="3" stdDeviation="5" flood-color="#FF8A3D" flood-opacity=".05"/></filter></defs>
  <g filter="url(#s)"><rect x="10" y="10" width="76" height="76" rx="22" fill="url(#g)"/><path fill-rule="evenodd" clip-rule="evenodd" d="M28 32C24.6863 32 22 34.6863 22 38V60C22 63.3137 24.6863 66 28 66H68C71.3137 66 74 63.3137 74 60V38C74 34.6863 71.3137 32 68 32H28ZM29.8 38L48 51.2L66.2 38H29.8ZM68 44.2L50.94 56.57C49.187 57.841 46.813 57.841 45.06 56.57L28 44.2V60H68V44.2Z" fill="#FFFFFF" fill-opacity=".88"/><circle cx="68" cy="35" r="7" fill="#FF8A3D"/></g>
</svg>
