<svg width="96" height="96" viewBox="0 0 96 96" fill="none" xmlns="http://www.w3.org/2000/svg">
  <defs><linearGradient id="g" x1="14" y1="12" x2="84" y2="84" gradientUnits="userSpaceOnUse"><stop stop-color="#E9FFF5"/><stop offset=".55" stop-color="#9EF1D2"/><stop offset="1" stop-color="#FFE0C2"/></linearGradient><filter id="s" x="0" y="2" width="96" height="96" filterUnits="userSpaceOnUse" color-interpolation-filters="sRGB"><feDropShadow dx="0" dy="10" stdDeviation="9" flood-color="#29466F" flood-opacity=".08"/><feDropShadow dx="0" dy="3" stdDeviation="5" flood-color="#FF8A3D" flood-opacity=".07"/></filter></defs>
  <g filter="url(#s)"><rect x="10" y="10" width="76" height="76" rx="22" fill="url(#g)"/><path fill-rule="evenodd" clip-rule="evenodd" d="M48 67C58.4934 67 67 58.4934 67 48C67 37.5066 58.4934 29 48 29C37.5066 29 29 37.5066 29 48C29 58.4934 37.5066 67 48 67ZM48 58C53.5228 58 58 53.5228 58 48C58 42.4772 53.5228 38 48 38C42.4772 38 38 42.4772 38 48C38 53.5228 42.4772 58 48 58Z" fill="#FFFFFF" fill-opacity=".86"/><path d="M25 32C25 30.3431 26.3431 29 28 29C29.6569 29 31 30.3431 31 32V45C31 47.4189 29.2822 49.4367 27 49.9V65C27 66.6569 25.6569 68 24 68C22.3431 68 21 66.6569 21 65V49.9C18.7178 49.4367 17 47.4189 17 45V32C17 30.3431 18.3431 29 20 29C21.6569 29 23 30.3431 23 32V43H25V32Z" fill="#1F5DAE" fill-opacity=".36"/><path d="M73 30C76.866 30 80 33.134 80 37V50C80 53.866 76.866 57 73 57V65C73 66.6569 71.6569 68 70 68C68.3431 68 67 66.6569 67 65V36C67 32.6863 69.6863 30 73 30Z" fill="#FF8A3D" fill-opacity=".76"/></g>
</svg>
