<svg width="96" height="96" viewBox="0 0 96 96" fill="none" xmlns="http://www.w3.org/2000/svg">
  <defs><linearGradient id="g" x1="14" y1="12" x2="84" y2="84" gradientUnits="userSpaceOnUse"><stop stop-color="#EAF7FF"/><stop offset=".55" stop-color="#A9D8FF"/><stop offset="1" stop-color="#FFE0C2"/></linearGradient><filter id="s" x="0" y="2" width="96" height="96" filterUnits="userSpaceOnUse" color-interpolation-filters="sRGB"><feDropShadow dx="0" dy="10" stdDeviation="9" flood-color="#29466F" flood-opacity=".08"/><feDropShadow dx="0" dy="3" stdDeviation="5" flood-color="#FF8A3D" flood-opacity=".07"/></filter></defs>
  <g filter="url(#s)"><rect x="10" y="10" width="76" height="76" rx="22" fill="url(#g)"/><path fill-rule="evenodd" clip-rule="evenodd" d="M27 39C27 35.6863 29.6863 33 33 33H51C54.3137 33 57 35.6863 57 39V46H64.5C66.3895 46 68.1681 46.8898 69.3 48.4L75 56V63H68.5C67.2399 67.0279 63.4781 70 59 70C54.5219 70 50.7601 67.0279 49.5 63H43.5C42.2399 67.0279 38.4781 70 34 70C29.5219 70 25.7601 67.0279 24.5 63H21V45C21 41.6863 23.6863 39 27 39ZM59 63C60.6569 63 62 61.6569 62 60C62 58.3431 60.6569 57 59 57C57.3431 57 56 58.3431 56 60C56 61.6569 57.3431 63 59 63ZM34 63C35.6569 63 37 61.6569 37 60C37 58.3431 35.6569 57 34 57C32.3431 57 31 58.3431 31 60C31 61.6569 32.3431 63 34 63Z" fill="#FFFFFF" fill-opacity=".86"/><rect x="34" y="41" width="14" height="6" rx="3" fill="#1F5DAE" fill-opacity=".28"/><rect x="58" y="36" width="10" height="6" rx="3" fill="#FF8A3D"/></g>
</svg>
