<svg width="96" height="96" viewBox="0 0 96 96" fill="none" xmlns="http://www.w3.org/2000/svg">
  <defs><linearGradient id="g" x1="14" y1="12" x2="84" y2="84" gradientUnits="userSpaceOnUse"><stop stop-color="#FFF7D8"/><stop offset=".55" stop-color="#FFD58A"/><stop offset="1" stop-color="#FFE0C2"/></linearGradient><filter id="s" x="0" y="2" width="96" height="96" filterUnits="userSpaceOnUse" color-interpolation-filters="sRGB"><feDropShadow dx="0" dy="10" stdDeviation="9" flood-color="#29466F" flood-opacity=".08"/><feDropShadow dx="0" dy="3" stdDeviation="5" flood-color="#FF8A3D" flood-opacity=".08"/></filter></defs>
  <g filter="url(#s)"><rect x="10" y="10" width="76" height="76" rx="22" fill="url(#g)"/><path fill-rule="evenodd" clip-rule="evenodd" d="M43.5 28.402C45.5 24.938 50.5 24.938 52.5 28.402L72.052 62.265C74.052 65.729 71.552 70.059 67.552 70.059H28.448C24.448 70.059 21.948 65.729 23.948 62.265L43.5 28.402ZM48 39C46.343 39 45 40.343 45 42V53C45 54.657 46.343 56 48 56C49.657 56 51 54.657 51 53V42C51 40.343 49.657 39 48 39ZM48 64C50.209 64 52 62.209 52 60C52 57.791 50.209 56 48 56C45.791 56 44 57.791 44 60C44 62.209 45.791 64 48 64Z" fill="#FFFFFF" fill-opacity=".88"/></g>
</svg>
