<svg width="96" height="96" viewBox="0 0 96 96" fill="none" xmlns="http://www.w3.org/2000/svg">
  <defs><linearGradient id="g" x1="14" y1="12" x2="84" y2="84" gradientUnits="userSpaceOnUse"><stop stop-color="#FFF2E8"/><stop offset=".55" stop-color="#FFB06F"/><stop offset="1" stop-color="#B9DCFF"/></linearGradient><filter id="s" x="0" y="2" width="96" height="96" filterUnits="userSpaceOnUse" color-interpolation-filters="sRGB"><feDropShadow dx="0" dy="10" stdDeviation="9" flood-color="#29466F" flood-opacity=".08"/><feDropShadow dx="0" dy="3" stdDeviation="5" flood-color="#FF8A3D" flood-opacity=".09"/></filter></defs>
  <g filter="url(#s)"><rect x="10" y="10" width="76" height="76" rx="22" fill="url(#g)"/><path fill-rule="evenodd" clip-rule="evenodd" d="M48 25L72 45.5C73.2607 46.576 73.4104 48.4699 72.3344 49.7306C71.2584 50.9913 69.3645 51.141 68.1038 50.065L66 48.269V65C66 68.3137 63.3137 71 60 71H36C32.6863 71 30 68.3137 30 65V48.269L27.8962 50.065C26.6355 51.141 24.7416 50.9913 23.6656 49.7306C22.5896 48.4699 22.7393 46.576 24 45.5L48 25ZM42 65H54V52C54 50.3431 52.6569 49 51 49H45C43.3431 49 42 50.3431 42 52V65Z" fill="#FFFFFF" fill-opacity=".88"/><circle cx="62" cy="41" r="7" fill="#FF8A3D"/></g>
</svg>
