<svg width="96" height="96" viewBox="0 0 96 96" fill="none" xmlns="http://www.w3.org/2000/svg">
  <defs><linearGradient id="g" x1="14" y1="12" x2="84" y2="84" gradientUnits="userSpaceOnUse"><stop stop-color="#FFF7D8"/><stop offset=".55" stop-color="#FFBD77"/><stop offset="1" stop-color="#CFF7FF"/></linearGradient><filter id="s" x="0" y="2" width="96" height="96" filterUnits="userSpaceOnUse" color-interpolation-filters="sRGB"><feDropShadow dx="0" dy="10" stdDeviation="9" flood-color="#29466F" flood-opacity=".08"/><feDropShadow dx="0" dy="3" stdDeviation="5" flood-color="#FF8A3D" flood-opacity=".09"/></filter></defs>
  <g filter="url(#s)"><rect x="10" y="10" width="76" height="76" rx="22" fill="url(#g)"/><path fill-rule="evenodd" clip-rule="evenodd" d="M31 36C31 32.6863 33.6863 30 37 30H59C62.3137 30 65 32.6863 65 36L68 65C68.3537 68.4187 65.6729 71.4 62.236 71.4H33.764C30.3271 71.4 27.6463 68.4187 28 65L31 36ZM39 40C39 41.6569 40.3431 43 42 43C43.6569 43 45 41.6569 45 40V37H51V40C51 41.6569 52.3431 43 54 43C55.6569 43 57 41.6569 57 40V36C57 33.7909 55.2091 32 53 32H43C40.7909 32 39 33.7909 39 36V40Z" fill="#FFFFFF" fill-opacity=".86"/><rect x="41" y="51" width="14" height="6" rx="3" fill="#1F5DAE" fill-opacity=".34"/><circle cx="63" cy="37" r="7" fill="#FF8A3D"/></g>
</svg>
