<svg width="96" height="96" viewBox="0 0 96 96" fill="none" xmlns="http://www.w3.org/2000/svg">
  <defs><linearGradient id="g" x1="14" y1="12" x2="84" y2="84" gradientUnits="userSpaceOnUse"><stop stop-color="#EAF7FF"/><stop offset=".55" stop-color="#B9DCFF"/><stop offset="1" stop-color="#FFE0C2"/></linearGradient><filter id="s" x="0" y="2" width="96" height="96" filterUnits="userSpaceOnUse" color-interpolation-filters="sRGB"><feDropShadow dx="0" dy="10" stdDeviation="9" flood-color="#29466F" flood-opacity=".08"/><feDropShadow dx="0" dy="3" stdDeviation="5" flood-color="#FF8A3D" flood-opacity=".07"/></filter></defs>
  <g filter="url(#s)"><rect x="10" y="10" width="76" height="76" rx="22" fill="url(#g)"/><path fill-rule="evenodd" clip-rule="evenodd" d="M29 67C27.3431 67 26 65.6569 26 64V34C26 32.3431 27.3431 31 29 31C30.6569 31 32 32.3431 32 34V61H68C69.6569 61 71 62.3431 71 64C71 65.6569 69.6569 67 68 67H29ZM39 55C36.7909 55 35 53.2091 35 51V43C35 40.7909 36.7909 39 39 39C41.2091 39 43 40.7909 43 43V51C43 53.2091 41.2091 55 39 55ZM52 55C49.7909 55 48 53.2091 48 51V35C48 32.7909 49.7909 31 52 31C54.2091 31 56 32.7909 56 35V51C56 53.2091 54.2091 55 52 55ZM65 55C62.7909 55 61 53.2091 61 51V46C61 43.7909 62.7909 42 65 42C67.2091 42 69 43.7909 69 46V51C69 53.2091 67.2091 55 65 55Z" fill="#FFFFFF" fill-opacity=".88"/><circle cx="66" cy="32" r="7" fill="#FF8A3D"/></g>
</svg>
