<svg width="96" height="96" viewBox="0 0 96 96" fill="none" xmlns="http://www.w3.org/2000/svg">
  <defs><linearGradient id="g" x1="14" y1="12" x2="84" y2="84" gradientUnits="userSpaceOnUse"><stop stop-color="#FFF2E8"/><stop offset=".55" stop-color="#FFB06F"/><stop offset="1" stop-color="#D9C9FF"/></linearGradient><filter id="s" x="0" y="2" width="96" height="96" filterUnits="userSpaceOnUse" color-interpolation-filters="sRGB"><feDropShadow dx="0" dy="10" stdDeviation="9" flood-color="#29466F" flood-opacity=".08"/><feDropShadow dx="0" dy="3" stdDeviation="5" flood-color="#FF8A3D" flood-opacity=".08"/></filter></defs>
  <g filter="url(#s)"><rect x="10" y="10" width="76" height="76" rx="22" fill="url(#g)"/><path fill-rule="evenodd" clip-rule="evenodd" d="M30 30C26.686 30 24 32.686 24 36V54C24 57.314 26.686 60 30 60H40L48 69C48.88 69.99 50.5 69.368 50.5 68.043V60H66C69.314 60 72 57.314 72 54V36C72 32.686 69.314 30 66 30H30ZM37 43C35.343 43 34 44.343 34 46C34 47.657 35.343 49 37 49H49C50.657 49 52 47.657 52 46C52 44.343 50.657 43 49 43H37Z" fill="#FFFFFF" fill-opacity=".88"/><path d="M54.5 49.5L66.2 37.8C67 37 68.3 37 69.1 37.8L70.2 38.9C71 39.7 71 41 70.2 41.8L58.5 53.5L52.5 55.5L54.5 49.5Z" fill="#1F5DAE" fill-opacity=".38"/><circle cx="68" cy="39" r="6" fill="#FF8A3D"/></g>
</svg>
