<svg width="96" height="96" viewBox="0 0 96 96" fill="none" xmlns="http://www.w3.org/2000/svg">
  <defs><linearGradient id="g" x1="14" y1="12" x2="84" y2="84" gradientUnits="userSpaceOnUse"><stop stop-color="#F2F8FF"/><stop offset=".55" stop-color="#B9DCFF"/><stop offset="1" stop-color="#FFE0C2"/></linearGradient><filter id="s" x="0" y="2" width="96" height="96" filterUnits="userSpaceOnUse" color-interpolation-filters="sRGB"><feDropShadow dx="0" dy="10" stdDeviation="9" flood-color="#29466F" flood-opacity=".08"/><feDropShadow dx="0" dy="3" stdDeviation="5" flood-color="#FF8A3D" flood-opacity=".06"/></filter></defs>
  <g filter="url(#s)"><rect x="10" y="10" width="76" height="76" rx="22" fill="url(#g)"/><path fill-rule="evenodd" clip-rule="evenodd" d="M34 25C30.686 25 28 27.686 28 31V65C28 68.314 30.686 71 34 71H62C65.314 71 68 68.314 68 65V41L52 25H34ZM53 34V42H61L53 34ZM38 48C36.343 48 35 49.343 35 51C35 52.657 36.343 54 38 54H58C59.657 54 61 52.657 61 51C61 49.343 59.657 48 58 48H38ZM38 59C36.343 59 35 60.343 35 62C35 63.657 36.343 65 38 65H51C52.657 65 54 63.657 54 62C54 60.343 52.657 59 51 59H38Z" fill="#FFFFFF" fill-opacity=".88"/><circle cx="62" cy="62" r="7" fill="#FF8A3D"/></g>
</svg>
