<svg width="96" height="96" viewBox="0 0 96 96" fill="none" xmlns="http://www.w3.org/2000/svg">
  <defs><linearGradient id="g" x1="14" y1="12" x2="84" y2="84" gradientUnits="userSpaceOnUse"><stop stop-color="#FFF0F0"/><stop offset=".55" stop-color="#FFB7B0"/><stop offset="1" stop-color="#FFE0C2"/></linearGradient><filter id="s" x="0" y="2" width="96" height="96" filterUnits="userSpaceOnUse" color-interpolation-filters="sRGB"><feDropShadow dx="0" dy="10" stdDeviation="9" flood-color="#29466F" flood-opacity=".08"/><feDropShadow dx="0" dy="3" stdDeviation="5" flood-color="#D94A3D" flood-opacity=".08"/></filter></defs>
  <g filter="url(#s)"><rect x="10" y="10" width="76" height="76" rx="22" fill="url(#g)"/><circle cx="48" cy="48" r="24" fill="#FFFFFF" fill-opacity=".88"/><path fill-rule="evenodd" clip-rule="evenodd" d="M38.4 34.9C39.8 33.5 42 33.5 43.4 34.9L48 39.5L52.6 34.9C54 33.5 56.2 33.5 57.6 34.9L61.1 38.4C62.5 39.8 62.5 42 61.1 43.4L56.5 48L61.1 52.6C62.5 54 62.5 56.2 61.1 57.6L57.6 61.1C56.2 62.5 54 62.5 52.6 61.1L48 56.5L43.4 61.1C42 62.5 39.8 62.5 38.4 61.1L34.9 57.6C33.5 56.2 33.5 54 34.9 52.6L39.5 48L34.9 43.4C33.5 42 33.5 39.8 34.9 38.4L38.4 34.9Z" fill="#D94A3D"/></g>
</svg>
