<svg width="96" height="96" viewBox="0 0 96 96" fill="none" xmlns="http://www.w3.org/2000/svg">
  <defs><linearGradient id="g" x1="14" y1="12" x2="84" y2="84" gradientUnits="userSpaceOnUse"><stop stop-color="#FFF2E8"/><stop offset=".55" stop-color="#FFB06F"/><stop offset="1" stop-color="#D9C9FF"/></linearGradient><filter id="s" x="0" y="2" width="96" height="96" filterUnits="userSpaceOnUse" color-interpolation-filters="sRGB"><feDropShadow dx="0" dy="10" stdDeviation="9" flood-color="#29466F" flood-opacity=".08"/><feDropShadow dx="0" dy="3" stdDeviation="5" flood-color="#FF8A3D" flood-opacity=".09"/></filter></defs>
  <g filter="url(#s)"><rect x="10" y="10" width="76" height="76" rx="22" fill="url(#g)"/><path fill-rule="evenodd" clip-rule="evenodd" d="M31 31C31 27.6863 33.6863 25 37 25H61C64.3137 25 67 27.6863 67 31V48C67 51.3137 64.3137 54 61 54H50L39.5 64C38.561 64.894 37 64.228 37 62.931V54C33.6863 54 31 51.3137 31 48V31ZM39 36C39 34.343 40.343 33 42 33H55C56.657 33 58 34.343 58 36C58 37.657 56.657 39 55 39H42C40.343 39 39 37.657 39 36ZM42 44C40.343 44 39 45.343 39 47C39 48.657 40.343 50 42 50H51C52.657 50 54 48.657 54 47C54 45.343 52.657 44 51 44H42Z" fill="#FFFFFF" fill-opacity=".88"/><circle cx="65" cy="28" r="8" fill="#FF5A4F"/><circle cx="65" cy="28" r="3" fill="#FFFFFF" fill-opacity=".86"/></g>
</svg>
