<svg width="96" height="96" viewBox="0 0 96 96" fill="none" xmlns="http://www.w3.org/2000/svg">
  <defs><linearGradient id="g" x1="14" y1="12" x2="84" y2="84" gradientUnits="userSpaceOnUse"><stop stop-color="#F2F8FF"/><stop offset=".55" stop-color="#B9DCFF"/><stop offset="1" stop-color="#FFE0C2"/></linearGradient><filter id="s" x="0" y="2" width="96" height="96" filterUnits="userSpaceOnUse" color-interpolation-filters="sRGB"><feDropShadow dx="0" dy="10" stdDeviation="9" flood-color="#29466F" flood-opacity=".08"/><feDropShadow dx="0" dy="3" stdDeviation="5" flood-color="#FF8A3D" flood-opacity=".07"/></filter></defs>
  <g filter="url(#s)"><rect x="10" y="10" width="76" height="76" rx="22" fill="url(#g)"/><path fill-rule="evenodd" clip-rule="evenodd" d="M48 49C54.075 49 59 44.075 59 38C59 31.925 54.075 27 48 27C41.925 27 37 31.925 37 38C37 44.075 41.925 49 48 49ZM29 69C29 60.163 37.507 53 48 53C58.493 53 67 60.163 67 69C67 70.657 65.657 72 64 72H32C30.343 72 29 70.657 29 69Z" fill="#FFFFFF" fill-opacity=".88"/><circle cx="62" cy="58" r="7" fill="#FF8A3D"/></g>
</svg>
