<svg width="390" height="260" viewBox="0 0 390 260" fill="none" xmlns="http://www.w3.org/2000/svg">
  <defs>
    <linearGradient id="bg" x1="32" y1="24" x2="362" y2="234" gradientUnits="userSpaceOnUse">
      <stop stop-color="#FFF8F2"/>
      <stop offset="0.55" stop-color="#F1FAFF"/>
      <stop offset="1" stop-color="#FFFFFF"/>
    </linearGradient>
    <linearGradient id="device" x1="103" y1="76" x2="254" y2="212" gradientUnits="userSpaceOnUse">
      <stop stop-color="#EAF7FF"/>
      <stop offset="0.52" stop-color="#B9DCFF"/>
      <stop offset="1" stop-color="#D9F8FF"/>
    </linearGradient>
    <linearGradient id="panel" x1="214" y1="86" x2="304" y2="169" gradientUnits="userSpaceOnUse">
      <stop stop-color="#FFF1E3"/>
      <stop offset="0.54" stop-color="#FFB06F"/>
      <stop offset="1" stop-color="#9EF1E8"/>
    </linearGradient>
    <filter id="shadow" x="67" y="44" width="248" height="200" filterUnits="userSpaceOnUse" color-interpolation-filters="sRGB">
      <feDropShadow dx="0" dy="16" stdDeviation="16" flood-color="#2F5F8A" flood-opacity="0.08"/>
      <feDropShadow dx="0" dy="6" stdDeviation="10" flood-color="#FF8A3D" flood-opacity="0.08"/>
    </filter>
  </defs>
  <rect width="390" height="260" rx="40" fill="url(#bg)"/>
  <circle cx="304" cy="70" r="16" fill="#FFB06F" fill-opacity="0.18"/>
  <circle cx="88" cy="190" r="14" fill="#7BE7E4" fill-opacity="0.20"/>
  <g filter="url(#shadow)">
    <rect x="100" y="76" width="138" height="138" rx="30" fill="url(#device)"/>
    <rect x="126" y="103" width="86" height="56" rx="18" fill="#FFFFFF" fill-opacity="0.80"/>
    <rect x="142" y="122" width="50" height="8" rx="4" fill="#5B9DFF" fill-opacity="0.36"/>
    <rect x="142" y="142" width="36" height="8" rx="4" fill="#1F5DAE" fill-opacity="0.22"/>
    <rect x="140" y="183" width="72" height="10" rx="5" fill="#FFFFFF" fill-opacity="0.74"/>
    <rect x="208" y="92" width="88" height="72" rx="20" fill="url(#panel)"/>
    <path d="M228 124H268" stroke="#FFFFFF" stroke-opacity="0.70" stroke-width="8" stroke-linecap="round"/>
    <circle cx="272" cy="124" r="16" fill="#FF8A3D"/>
    <circle cx="272" cy="124" r="6" fill="#FFFFFF" fill-opacity="0.74"/>
    <circle cx="228" cy="142" r="7" fill="#FFFFFF" fill-opacity="0.58"/>
  </g>
</svg>
