<svg width="390" height="260" viewBox="0 0 390 260" fill="none" xmlns="http://www.w3.org/2000/svg">
  <defs>
    <linearGradient id="bg" x1="32" y1="24" x2="362" y2="234" gradientUnits="userSpaceOnUse">
      <stop stop-color="#FFF8F2"/>
      <stop offset="0.56" stop-color="#F6FBFF"/>
      <stop offset="1" stop-color="#FFFFFF"/>
    </linearGradient>
    <linearGradient id="calendar" x1="104" y1="78" x2="246" y2="212" gradientUnits="userSpaceOnUse">
      <stop stop-color="#FFF7D7"/>
      <stop offset="0.52" stop-color="#FFD58A"/>
      <stop offset="1" stop-color="#FFE0C2"/>
    </linearGradient>
    <linearGradient id="module" x1="202" y1="82" x2="302" y2="182" gradientUnits="userSpaceOnUse">
      <stop stop-color="#FFEAF4"/>
      <stop offset="0.48" stop-color="#FFB06F"/>
      <stop offset="1" stop-color="#BFF7F5"/>
    </linearGradient>
    <filter id="shadow" x="66" y="46" width="258" height="200" filterUnits="userSpaceOnUse" color-interpolation-filters="sRGB">
      <feDropShadow dx="0" dy="16" stdDeviation="16" flood-color="#2F5F8A" flood-opacity="0.08"/>
      <feDropShadow dx="0" dy="6" stdDeviation="10" flood-color="#FF8A3D" flood-opacity="0.08"/>
    </filter>
  </defs>
  <rect width="390" height="260" rx="40" fill="url(#bg)"/>
  <circle cx="302" cy="74" r="16" fill="#FFB06F" fill-opacity="0.18"/>
  <circle cx="86" cy="188" r="14" fill="#7BE7E4" fill-opacity="0.20"/>
  <g filter="url(#shadow)">
    <rect x="102" y="82" width="136" height="132" rx="30" fill="url(#calendar)"/>
    <rect x="128" y="108" width="84" height="72" rx="18" fill="#FFFFFF" fill-opacity="0.80"/>
    <rect x="128" y="108" width="84" height="20" rx="18" fill="#FF8A3D" fill-opacity="0.56"/>
    <circle cx="150" cy="148" r="6" fill="#1F5DAE" fill-opacity="0.20"/>
    <circle cx="170" cy="148" r="6" fill="#1F5DAE" fill-opacity="0.16"/>
    <circle cx="190" cy="148" r="6" fill="#7BE7E4" fill-opacity="0.62"/>
    <rect x="202" y="92" width="94" height="84" rx="22" fill="url(#module)"/>
    <rect x="224" y="118" width="18" height="18" rx="7" fill="#FFFFFF" fill-opacity="0.70"/>
    <rect x="250" y="118" width="28" height="18" rx="9" fill="#FFFFFF" fill-opacity="0.58"/>
    <path d="M232 151L241 160L263 137" stroke="#FFFFFF" stroke-opacity="0.86" stroke-width="7" stroke-linecap="round" stroke-linejoin="round"/>
  </g>
</svg>
