<svg xmlns="http://www.w3.org/2000/svg" viewBox="0 0 96 96">
  <defs>
    <linearGradient id="tile" gradientUnits="userSpaceOnUse" x1="16" y1="15" x2="80" y2="82"><stop stop-color="#EAF8FF"/><stop offset=".58" stop-color="#FFF7EE"/><stop offset="1" stop-color="#EEF4FF"/></linearGradient>
    <linearGradient id="glyph" gradientUnits="userSpaceOnUse" x1="28" y1="28" x2="68" y2="68"><stop stop-color="#24567F"/><stop offset="1" stop-color="#142C46"/></linearGradient>
    <linearGradient id="accent" gradientUnits="userSpaceOnUse" x1="55" y1="32" x2="70" y2="49"><stop stop-color="#FFB95F"/><stop offset="1" stop-color="#FF7338"/></linearGradient>
    <filter id="soft" x="8" y="8" width="80" height="84" color-interpolation-filters="sRGB"><feDropShadow dx="0" dy="10" stdDeviation="8" flood-color="#6A7B90" flood-opacity=".18" result="shadow"/><feMerge><feMergeNode in="shadow"/><feMergeNode in="SourceGraphic"/></feMerge></filter>
  </defs>
  <rect width="96" height="96" rx="26" fill="#fff"/>
  <g>
    <rect x="16" y="16" width="64" height="64" rx="18" fill="url(#tile)"/>
    <path fill="url(#glyph)" fill-rule="evenodd" d="M44.5 24h7l2.3 7.2c1.8.6 3.4 1.2 5 2.1l6.7-3.4 5 5-3.5 6.6c.9 1.6 1.6 3.3 2.1 5.1l7 2.3v7l-7 2.3a22 22 0 0 1-2.1 5.1l3.5 6.6-5 5-6.7-3.4c-1.6.9-3.2 1.6-5 2.1L51.5 80h-7l-2.3-7.2a21 21 0 0 1-5-2.1l-6.7 3.4-5-5 3.5-6.6a22 22 0 0 1-2.1-5.1l-7-2.3v-7l7-2.3c.5-1.8 1.2-3.5 2.1-5.1l-3.5-6.6 5-5 6.7 3.4c1.6-.9 3.2-1.6 5-2.1L44.5 24ZM48 42a10 10 0 1 0 0 20 10 10 0 0 0 0-20Z"/>
    <circle cx="48" cy="52" r="4.5" fill="#fff" opacity=".85"/>
    <circle cx="62" cy="37" r="5.5" fill="url(#accent)"/>
    <circle cx="60" cy="35" r="1.8" fill="#fff" opacity=".82"/>
  </g>
</svg>



