<svg xmlns="http://www.w3.org/2000/svg" viewBox="0 0 96 96">
  <defs>
    <linearGradient id="tile" gradientUnits="userSpaceOnUse" x1="16" y1="15" x2="80" y2="82"><stop stop-color="#F0FFF8"/><stop offset=".58" stop-color="#EAF8FF"/><stop offset="1" stop-color="#FFF3E8"/></linearGradient>
    <linearGradient id="glyph" gradientUnits="userSpaceOnUse" x1="30" y1="24" x2="68" y2="73"><stop stop-color="#247D68"/><stop offset="1" stop-color="#143E4F"/></linearGradient>
    <linearGradient id="accent" gradientUnits="userSpaceOnUse" x1="56" y1="29" x2="71" y2="46"><stop stop-color="#FFB95F"/><stop offset="1" stop-color="#FF7338"/></linearGradient>
    <filter id="soft" x="8" y="8" width="80" height="84" color-interpolation-filters="sRGB"><feDropShadow dx="0" dy="10" stdDeviation="8" flood-color="#6A7B90" flood-opacity=".18" result="shadow"/><feMerge><feMergeNode in="shadow"/><feMergeNode in="SourceGraphic"/></feMerge></filter>
  </defs>
  <rect width="96" height="96" rx="26" fill="#fff"/>
  <g>
    <rect x="16" y="16" width="64" height="64" rx="18" fill="url(#tile)"/>
    <path fill="url(#glyph)" fill-rule="evenodd" d="M48 22 68 30v15c0 13-7.8 24-20 30-12.2-6-20-17-20-30V30l20-8Zm-8 28h16c3 0 5.5 2.5 5.5 5.5V64c0 3-2.5 5.5-5.5 5.5H40c-3 0-5.5-2.5-5.5-5.5v-8.5c0-3 2.5-5.5 5.5-5.5Zm4-4h8v-5a4 4 0 0 0-8 0v5Zm4 12a3 3 0 0 0-1.5 5.6V67h3v-3.4A3 3 0 0 0 48 58Z"/>
    <circle cx="63" cy="35" r="6" fill="url(#accent)"/>
    <circle cx="60.8" cy="32.8" r="1.8" fill="#fff" opacity=".86"/>
  </g>
</svg>



