<svg xmlns="http://www.w3.org/2000/svg" viewBox="0 0 96 96">
  <defs>
    <linearGradient id="tile" gradientUnits="userSpaceOnUse" x1="16" y1="14" x2="80" y2="82"><stop stop-color="#F1FFF7"/><stop offset=".62" stop-color="#E8F7FF"/><stop offset="1" stop-color="#FFF3E8"/></linearGradient>
    <linearGradient id="glyph" gradientUnits="userSpaceOnUse" x1="28" y1="26" x2="68" y2="68"><stop stop-color="#1F7E67"/><stop offset="1" stop-color="#143A54"/></linearGradient>
    <linearGradient id="accent" gradientUnits="userSpaceOnUse" x1="62" y1="37" x2="75" y2="58"><stop stop-color="#FFBC62"/><stop offset="1" stop-color="#FF7439"/></linearGradient>
    <filter id="soft" x="8" y="8" width="80" height="84" color-interpolation-filters="sRGB"><feDropShadow dx="0" dy="10" stdDeviation="8" flood-color="#6A7B90" flood-opacity=".18" result="shadow"/><feMerge><feMergeNode in="shadow"/><feMergeNode in="SourceGraphic"/></feMerge></filter>
  </defs>
  <rect width="96" height="96" rx="26" fill="#fff"/>
  <g>
    <rect x="16" y="16" width="64" height="64" rx="18" fill="url(#tile)"/>
    <path fill="url(#glyph)" fill-rule="evenodd" d="M34 48a14 14 0 1 1 28 0 14 14 0 0 1-28 0Zm7 0a7 7 0 1 0 14 0 7 7 0 0 0-14 0Z"/>
    <path fill="url(#glyph)" d="M28 29a3 3 0 0 1 3 3v11h2V32a3 3 0 1 1 6 0v11h2V32a3 3 0 1 1 6 0v13c0 4-2.4 7.4-6 8.8V66a4 4 0 0 1-8 0V53.8c-3.6-1.4-6-4.8-6-8.8V32a3 3 0 0 1 1-2.3Z"/>
    <path fill="url(#accent)" d="M67 31c5 4 7 10.5 5.5 17.5-.8 3.4-2.5 6-5.5 7.6V66a4 4 0 0 1-8 0V31c0-3.2 4.8-4 8 0Z"/>
    <ellipse cx="47" cy="32" rx="13" ry="5" fill="#fff" opacity=".36"/>
  </g>
</svg>



