<svg xmlns="http://www.w3.org/2000/svg" viewBox="0 0 96 96">
  <defs>
    <linearGradient id="tile" gradientUnits="userSpaceOnUse" x1="16" y1="16" x2="81" y2="80"><stop stop-color="#EAF8FF"/><stop offset=".6" stop-color="#F0FFF6"/><stop offset="1" stop-color="#FFF1E8"/></linearGradient>
    <linearGradient id="glyph" gradientUnits="userSpaceOnUse" x1="28" y1="33" x2="70" y2="66"><stop stop-color="#245A84"/><stop offset="1" stop-color="#14314A"/></linearGradient>
    <linearGradient id="accent" gradientUnits="userSpaceOnUse" x1="58" y1="35" x2="72" y2="52"><stop stop-color="#FFB965"/><stop offset="1" stop-color="#FF7438"/></linearGradient>
    <filter id="soft" x="8" y="8" width="80" height="84" color-interpolation-filters="sRGB"><feDropShadow dx="0" dy="10" stdDeviation="8" flood-color="#6A7B90" flood-opacity=".18" result="shadow"/><feMerge><feMergeNode in="shadow"/><feMergeNode in="SourceGraphic"/></feMerge></filter>
  </defs>
  <rect width="96" height="96" rx="26" fill="#fff"/>
  <g>
    <rect x="16" y="16" width="64" height="64" rx="18" fill="url(#tile)"/>
    <path fill="url(#glyph)" d="M27 39c0-4 3-7 7-7h23c4 0 7 3 7 7v4h4.5c2 0 3.8 1 4.8 2.8l4.6 8.2c.7 1.2 1.1 2.5 1.1 3.9V62c0 3.3-2.7 6-6 6h-4a8 8 0 0 0-16 0H42a8 8 0 0 0-16 0h-1c-3.3 0-6-2.7-6-6V46c0-3.9 3.1-7 7-7h1Z"/>
    <path fill="url(#accent)" d="M64 47h5l4 7h-9v-7Z"/>
    <circle cx="34" cy="68" r="5" fill="#fff"/>
    <circle cx="61" cy="68" r="5" fill="#fff"/>
    <circle cx="34" cy="68" r="2.3" fill="#284562"/>
    <circle cx="61" cy="68" r="2.3" fill="#284562"/>
    <rect x="32" y="40" width="22" height="8" rx="4" fill="#fff" opacity=".28"/>
  </g>
</svg>



