<svg xmlns="http://www.w3.org/2000/svg" viewBox="0 0 96 96">
  <defs>
    <linearGradient id="tile" gradientUnits="userSpaceOnUse" x1="16" y1="15" x2="80" y2="82"><stop stop-color="#EAF8FF"/><stop offset=".58" stop-color="#FFF6EC"/><stop offset="1" stop-color="#F5F0FF"/></linearGradient>
    <linearGradient id="glyph" gradientUnits="userSpaceOnUse" x1="31" y1="25" x2="66" y2="72"><stop stop-color="#255A84"/><stop offset="1" stop-color="#14304A"/></linearGradient>
    <linearGradient id="accent" gradientUnits="userSpaceOnUse" x1="54" y1="51" x2="70" y2="68"><stop stop-color="#FFB95F"/><stop offset="1" stop-color="#FF7338"/></linearGradient>
    <filter id="soft" x="8" y="8" width="80" height="84" color-interpolation-filters="sRGB"><feDropShadow dx="0" dy="10" stdDeviation="8" flood-color="#6A7B90" flood-opacity=".18" result="shadow"/><feMerge><feMergeNode in="shadow"/><feMergeNode in="SourceGraphic"/></feMerge></filter>
  </defs>
  <rect width="96" height="96" rx="26" fill="#fff"/>
  <g>
    <rect x="16" y="16" width="64" height="64" rx="18" fill="url(#tile)"/>
    <path fill="url(#glyph)" fill-rule="evenodd" d="M34 24h21l13 13v31c0 4-3 7-7 7H34c-4 0-7-3-7-7V31c0-4 3-7 7-7Zm20 5v10h10L54 29ZM38 47a3 3 0 0 0 0 6h16a3 3 0 1 0 0-6H38Zm0 11a3 3 0 1 0 0 6h10a3 3 0 1 0 0-6H38Z"/>
    <circle cx="61" cy="62" r="10" fill="url(#accent)"/>
    <path fill="#fff" d="M56.5 61a2.5 2.5 0 0 1 3.5 0l1 1 3-3.6a2.5 2.5 0 0 1 3.8 3.2l-4.7 5.5a2.5 2.5 0 0 1-3.7.1l-2.9-2.8a2.5 2.5 0 0 1 0-3.5Z"/>
  </g>
</svg>



